<svg width="100" height="64" viewBox="0 0 100 64" fill="none" xmlns="http://www.w3.org/2000/svg">
<path d="M28.1899 47.6367C23.679 47.6367 20.0083 51.3076 20.0083 55.8183C20.0083 60.3291 23.6791 64 28.1899 64C32.7007 64 36.3715 60.3291 36.3715 55.8183C36.3754 51.3075 32.7045 47.6367 28.1899 47.6367Z" fill="#124761"/>
<path d="M83.793 47.6367C79.2821 47.6367 75.6113 51.3076 75.6113 55.8183C75.6113 60.3291 79.2822 64 83.793 64C88.3037 64 91.9746 60.3291 91.9746 55.8183C91.9746 51.3076 88.3037 47.6367 83.793 47.6367Z" fill="#124761"/>
<path d="M2.16042 26.0799C1.46615 26.0799 0.902344 26.6438 0.902344 27.338C0.902344 28.0322 1.4662 28.5961 2.16042 28.5961H12.6516V26.0798L2.16042 26.0799Z" fill="#124761"/>
<path d="M6.3489 17.7059C5.65463 17.7059 5.09082 18.2698 5.09082 18.964C5.09082 19.6583 5.65468 20.2221 6.3489 20.2221H12.6511V17.7058L6.3489 17.7059Z" fill="#124761"/>
<path d="M6.3489 34.4531C5.65463 34.4531 5.09082 35.017 5.09082 35.7112C5.09082 36.4055 5.65468 36.9693 6.3489 36.9693L12.6511 36.9731V34.4569L6.3489 34.4531Z" fill="#124761"/>
<path d="M12.6514 0.00028843V17.7059H18.8461C19.5404 17.7059 20.1042 18.2697 20.1042 18.9639C20.1042 19.6582 19.5403 20.222 18.8461 20.222H12.6514V26.0792H23.0306C23.7249 26.0792 24.2887 26.643 24.2887 27.3372C24.2887 28.0315 23.7248 28.5953 23.0306 28.5953L12.6514 28.5992V34.4563H18.8461C19.5404 34.4563 20.1042 35.0202 20.1042 35.7144C20.1042 36.4086 19.5403 36.9725 18.8461 36.9725H12.6514V54.5592H17.5611C18.1864 49.2506 22.7125 45.1156 28.1898 45.1156C33.6634 45.1156 38.1939 49.2467 38.8184 54.5592H65.8221V0L12.6514 0.00028843ZM33.5021 28.5996H29.2099C28.5157 28.5996 27.9518 28.0358 27.9518 27.3416C27.9518 26.6473 28.5157 26.0835 29.2099 26.0835H33.5021C34.1964 26.0835 34.7602 26.6473 34.7602 27.3416C34.7602 28.0358 34.1964 28.5996 33.5021 28.5996Z" fill="#124761"/>
<path d="M77.2149 26.7741C76.5207 26.7741 75.9569 26.2102 75.9569 25.516L75.953 15.1594C75.953 14.4651 76.5169 13.9013 77.2111 13.9013C77.9054 13.9013 78.4692 14.4651 78.4692 15.1594V24.2577H97.6251L84.1959 9.01489H68.3354V54.5608H73.1609C73.7861 49.2521 78.3123 45.1171 83.7895 45.1171C89.2631 45.1171 93.7936 49.2482 94.4182 54.5608H99.0977V26.7745L77.2149 26.7741Z" fill="#124761"/>
</svg>
