<?xml version="1.0" encoding="UTF-8"?>
<svg xmlns="http://www.w3.org/2000/svg" xmlns:xlink="http://www.w3.org/1999/xlink" version="1.1" viewBox="0 0 963 569.2">
  <defs>
    <style>
      .cls-1, .cls-2 {
        fill: none;
        stroke-width: 16px;
      }

      .cls-1, .cls-2, .cls-3, .cls-4, .cls-5, .cls-6, .cls-7, .cls-8, .cls-9, .cls-10, .cls-11 {
        stroke-miterlimit: 10;
      }

      .cls-1, .cls-3, .cls-4, .cls-7, .cls-8, .cls-10, .cls-11 {
        stroke: #fff;
      }

      .cls-2, .cls-5 {
        stroke: #505269;
      }

      .cls-3, .cls-4, .cls-5, .cls-6, .cls-7, .cls-8, .cls-9, .cls-10, .cls-11 {
        stroke-width: 2px;
      }

      .cls-3, .cls-12, .cls-6 {
        fill: #feff00;
      }

      .cls-4 {
        fill: #fad80a;
      }

      .cls-13, .cls-11 {
        fill: #4f4f4f;
      }

      .cls-5, .cls-8 {
        fill: #505269;
      }

      .cls-14, .cls-9 {
        fill: #fff;
      }

      .cls-15, .cls-10 {
        fill: #fad909;
      }

      .cls-6, .cls-9 {
        stroke: #1d1d1b;
      }

      .cls-7 {
        fill: #fcd809;
      }
    </style>
  </defs>
  <!-- Generator: Adobe Illustrator 28.7.1, SVG Export Plug-In . SVG Version: 1.2.0 Build 142)  -->
  <g>
    <g id="Calque_1">
      <path class="cls-2" d="M2471.3-947.2c-22.5-41.4-35.3-88.9-35.3-139.3,0-161.5,130.9-292.3,292.3-292.3s292.3,130.9,292.3,292.3-130.9,292.3-292.3,292.3c-13.9-.5-29.5-2-46.5-5.2-30.4-5.7-55.7-15-75.1-24"/>
      <path class="cls-13" d="M87.8,0h787.5c48.5,0,87.8,27.3,87.8,61v447.2c0,33.7-39.3,61-87.8,61H87.8c-48.5,0-87.8-27.3-87.8-61V61C0,27.3,39.3,0,87.8,0Z"/>
      <rect class="cls-5" x="1995" y="-113" width="882" height="750" rx="80.4" ry="80.4"/>
      <path class="cls-6" d="M2543.5-1878.6c87.3-.2,174.7-.4,262-.6,2.8,0,6.4.2,10.8.6,3.9.3,11.2,1,19.8,2.9,3.7.8,9.7,2.3,19.1,5.7,10.9,3.9,23.9,8.5,39.1,17.9,5.1,3.2,13.2,8.2,22.6,16.6,7.6,6.8,18.4,16.6,27.7,33.2,3.9,6.9,10.9,19.8,13.6,38.6.9,6,1.7,15.4.4,26.6-3.1,28.4-17.3,47.6-24,56.4-11.6,15.3-23.3,23.4-32.8,30,0,0-24.5,17.1-55.2,24.9-10.6,2.7-20.4,4.3-24.9,4.9-4.9.6-9,.9-12.1,1.1-88.8.1-177.7.3-266.5.4v-259.2h0Z"/>
      <path class="cls-9" d="M2573.4-1849.2h223.9c3.3,0,6.2,0,8.5.2,5.6.1,7.5.3,9.4.6,1.7.2,3.8.6,4,.6,0,0,2.3.4,4.7.9,7.8,1.6,16.4,4.4,16.4,4.4,9.4,3,20.4,6.5,33.5,13.8,4.4,2.4,11.3,6.3,19.4,12.8,6.5,5.2,15.7,12.8,23.7,25.6,3.3,5.3,9.4,15.2,11.7,29.7.7,4.6,1.4,11.9.4,20.5-2.7,21.9-14.8,36.7-20.5,43.5-9.9,11.8-19.9,18.1-28.1,23.1,0,0-21,13.1-47.2,19.2-3,.7-11,2.4-21.3,3.8-4.2.5-7.7.9-10.2,1.1h-228.2v-199.8h0Z"/>
      <rect class="cls-6" x="2632.8" y="-1934.4" width="29.1" height="371.3"/>
      <rect class="cls-12" x="2658.6" y="-1877.8" width="4.9" height="27.6"/>
      <rect class="cls-6" x="2632.8" y="-1934.4" width="214.5" height="29.1"/>
      <rect class="cls-12" x="2633.8" y="-1913" width="27.1" height="10.9"/>
      <rect class="cls-6" x="2632.8" y="-1592.2" width="214.5" height="29.1"/>
      <rect class="cls-6" x="2661.9" y="-1763.3" width="147.7" height="29.1"/>
      <rect class="cls-12" x="2633.8" y="-1596.4" width="27.1" height="10.9"/>
      <rect class="cls-12" x="2658.1" y="-1762.3" width="10.9" height="27.1"/>
      <rect class="cls-12" x="2630.8" y="-1877.8" width="4.9" height="27.6"/>
      <circle class="cls-2" cx="2735.7" cy="-1747.8" r="299.7"/>
      <path class="cls-6" d="M2599.8-1292.9c57.2-.1,114.3-.3,171.4-.4,1.8,0,4.2.2,7.1.4,2.6.2,7.3.6,12.9,1.9,2.4.5,6.3,1.5,12.5,3.7,7.2,2.6,15.6,5.6,25.6,11.7,3.4,2.1,8.7,5.3,14.8,10.9,5,4.5,12,10.9,18.1,21.7,2.5,4.5,7.2,12.9,8.9,25.2.6,3.9,1.1,10.1.3,17.4-2.1,18.6-11.3,31.2-15.7,36.9-7.6,10-15.2,15.3-21.4,19.7,0,0-16,11.2-36.1,16.3-6.9,1.8-13.3,2.8-16.3,3.2-3.2.4-5.9.6-7.9.7-58.1,0-116.3.2-174.4.3v-169.6h0Z"/>
      <path class="cls-9" d="M2619.3-1273.7h146.5c2.2,0,4.1,0,5.5,0,3.7,0,4.9.2,6.2.4,1.1.2,2.5.4,2.6.4,0,0,1.5.3,3.1.6,5.1,1.1,10.7,2.9,10.7,2.9,6.1,2,13.4,4.3,21.9,9,2.9,1.6,7.4,4.1,12.7,8.4,4.3,3.4,10.3,8.4,15.5,16.8,2.2,3.5,6.1,10,7.6,19.5.5,3,.9,7.8.2,13.4-1.8,14.3-9.7,24-13.4,28.4-6.5,7.7-13,11.8-18.3,15.2,0,0-13.7,8.6-30.9,12.6-2,.4-7.2,1.6-13.9,2.5-2.7.4-5,.6-6.7.7h-149.3v-130.7h0Z"/>
      <rect class="cls-6" x="2658.2" y="-1329.5" width="19.1" height="242.9"/>
      <rect class="cls-12" x="2675.1" y="-1292.1" width="3.2" height="17.4"/>
      <rect class="cls-6" x="2658.2" y="-1329.5" width="140.3" height="19.1"/>
      <rect class="cls-12" x="2659.2" y="-1315.4" width="17.1" height="7.1"/>
      <rect class="cls-6" x="2658.2" y="-1105.6" width="140.3" height="19.1"/>
      <rect class="cls-6" x="2677.2" y="-1217.5" width="96.7" height="19.1"/>
      <rect class="cls-12" x="2659.2" y="-1108.3" width="17.1" height="7.1"/>
      <rect class="cls-12" x="2674.7" y="-1216.5" width="7.1" height="17.1"/>
      <rect class="cls-12" x="2656.9" y="-1292.1" width="3.2" height="17.4"/>
      <g>
        <path d="M2519.3-1030.6h25.9c5.1,0,9.2.7,12.3,2.1s5.7,3.4,7.8,6,3.5,5.6,4.5,9,1.4,7.1,1.4,10.9c0,6-.7,10.7-2.1,14-1.4,3.3-3.3,6.1-5.7,8.3s-5.1,3.7-7.8,4.5c-3.8,1-7.3,1.5-10.4,1.5h-25.9v-56.3h0ZM2536.7-1017.8v30.8h4.3c3.6,0,6.2-.4,7.8-1.2s2.7-2.2,3.6-4.2c.9-2,1.3-5.3,1.3-9.8s-1-10.1-2.9-12.3c-1.9-2.2-5.2-3.3-9.7-3.3h-4.3Z"/>
        <path d="M2628.8-1030.6h17.4v33.6c0,3.3-.5,6.5-1.6,9.4-1,3-2.7,5.5-4.9,7.8-2.2,2.2-4.5,3.8-7,4.7-3.4,1.2-7.4,1.9-12.2,1.9s-5.7-.2-9-.6c-3.2-.4-5.9-1.2-8.1-2.3s-4.2-2.8-6-4.9-3-4.3-3.7-6.5c-1.1-3.6-1.6-6.8-1.6-9.5v-33.6h17.4v34.4c0,3.1.8,5.5,2.6,7.2s4.1,2.6,7.1,2.6,5.3-.8,7.1-2.6,2.6-4.1,2.6-7.2v-34.4h0Z"/>
        <path d="M2669.4-1030.6h28.9c6.3,0,11,1.5,14.2,4.5s4.7,7.3,4.7,12.8-1.7,10.1-5.1,13.3-8.6,4.8-15.7,4.8h-9.5v20.9h-17.5v-56.3h0ZM2686.9-1006.6h4.3c3.4,0,5.7-.6,7.1-1.8s2-2.7,2-4.5-.6-3.3-1.8-4.5-3.4-1.8-6.7-1.8h-5v12.6h0Z"/>
        <path d="M2735.9-1002.4c0-9.2,2.6-16.3,7.7-21.5,5.1-5.1,12.3-7.7,21.4-7.7s16.6,2.5,21.7,7.6,7.6,12.1,7.6,21.2-1.1,12-3.3,16.2c-2.2,4.2-5.4,7.5-9.6,9.8-4.2,2.3-9.4,3.5-15.7,3.5s-11.6-1-15.8-3c-4.2-2-7.5-5.2-10.1-9.6s-3.9-9.9-3.9-16.4h0ZM2753.3-1002.3c0,5.7,1.1,9.8,3.2,12.3s5,3.7,8.6,3.7,6.6-1.2,8.7-3.7,3.1-6.8,3.1-13.1-1.1-9.2-3.2-11.6-5-3.7-8.7-3.7-6.3,1.2-8.4,3.7-3.2,6.6-3.2,12.3h0Z"/>
        <path d="M2815.5-1030.6h16.2l21.2,31.2v-31.2h16.4v56.3h-16.4l-21.1-30.9v30.9h-16.4v-56.3Z"/>
        <path d="M2888.8-1030.6h52.9v13.9h-17.8v42.4h-17.4v-42.4h-17.8v-13.9Z"/>
        <path d="M2519.1-936.2h46.6v12h-29.2v8.9h27.1v11.5h-27.1v11.1h30v12.8h-47.5v-56.3h0Z"/>
        <path d="M2587.7-936.2h28.9c6.3,0,11,1.5,14.2,4.5s4.7,7.3,4.7,12.8-1.7,10.1-5.1,13.3-8.6,4.8-15.7,4.8h-9.5v20.9h-17.5v-56.3h0ZM2605.1-912.2h4.3c3.4,0,5.7-.6,7.1-1.8s2-2.7,2-4.5-.6-3.3-1.8-4.5-3.4-1.8-6.7-1.8h-5v12.6h0Z"/>
        <path d="M2657-936.2h17.4v56.3h-17.4v-56.3Z"/>
      </g>
      <path class="cls-1" d="M2178.9,401.4c-22.5-41.4-35.3-88.9-35.3-139.4,0-161.5,130.9-292.4,292.3-292.4s292.4,130.9,292.4,292.4-130.9,292.4-292.3,292.4c-13.9-.5-29.5-2-46.5-5.2-30.4-5.7-55.7-15-75.1-24"/>
      <path class="cls-1" d="M493.4,391.5c-11.7,21.3-27,41-46.1,58.1-90.5,81.1-229.6,73.6-310.7-16.9-81.1-90.5-73.6-229.6,16.9-310.7,90.5-81.1,229.6-73.6,310.7,16.9,6.7,8,13.7,17.5,20.5,28.6,6,9.9,10.8,19.5,14.8,28.5"/>
      <path class="cls-1" d="M501.3,376"/>
      <path class="cls-7" d="M155.7,191.2c65.7-.2,131.5-.3,197.2-.5,2.1,0,4.9.2,8.2.5,3,.3,8.4.7,14.9,2.2,2.8.6,7.3,1.7,14.4,4.3,8.2,2.9,18,6.4,29.5,13.5,3.9,2.4,9.9,6.2,17,12.5,5.7,5.1,13.8,12.5,20.9,25,2.9,5.2,8.2,14.9,10.3,29.1.6,4.5,1.3,11.6.3,20-2.4,21.4-13,35.8-18,42.5-8.7,11.5-17.5,17.6-24.7,22.6,0,0-18.4,12.8-41.6,18.8-8,2-15.4,3.3-18.7,3.7-3.7.5-6.8.7-9.1.8-66.9,0-133.7.2-200.6.3v-195.1h0Z"/>
      <path class="cls-11" d="M178.2,213.3h168.5c2.5,0,4.7,0,6.4.1,4.2.1,5.6.2,7.1.4,1.2.2,2.8.4,3,.5,0,0,1.8.3,3.5.7,5.9,1.2,12.3,3.3,12.3,3.3,7,2.3,15.4,4.9,25.2,10.4,3.3,1.8,8.5,4.7,14.6,9.6,4.9,4,11.8,9.6,17.9,19.3,2.5,4,7,11.5,8.8,22.4.5,3.5,1.1,8.9.3,15.4-2,16.5-11.1,27.6-15.4,32.7-7.5,8.9-15,13.6-21.1,17.4,0,0-15.8,9.9-35.6,14.5-2.3.5-8.3,1.8-16,2.8-3.2.4-5.8.7-7.6.9h-171.8v-150.4h0Z"/>
      <rect class="cls-4" x="222.9" y="149.2" width="21.9" height="279.5"/>
      <rect class="cls-15" x="242.9" y="191.8" width="3.7" height="20.7"/>
      <rect class="cls-4" x="222.9" y="149.2" width="161.4" height="21.9"/>
      <rect class="cls-15" x="223.9" y="165.3" width="20.2" height="8.2"/>
      <rect class="cls-10" x="222.9" y="406.8" width="161.4" height="21.9"/>
      <rect class="cls-4" x="244.8" y="278" width="111.2" height="21.9"/>
      <rect class="cls-15" x="223.9" y="403.6" width="19.8" height="8.2"/>
      <rect class="cls-15" x="241.9" y="279" width="8.2" height="19.9"/>
      <rect class="cls-15" x="221.4" y="191.9" width="3.7" height="20.6"/>
      <path class="cls-3" d="M2307.4,55.6c57.2-.1,114.3-.3,171.4-.4,1.8,0,4.2.1,7.1.4,2.6.2,7.3.6,12.9,1.9,2.4.5,6.3,1.5,12.5,3.7,7.2,2.6,15.6,5.6,25.6,11.7,3.4,2.1,8.6,5.4,14.8,10.9,5,4.5,12,10.9,18.1,21.7,2.5,4.5,7.2,12.9,8.9,25.2.6,3.9,1.1,10.1.3,17.4-2.1,18.6-11.3,31.2-15.7,36.9-7.6,10-15.2,15.3-21.4,19.7,0,0-16,11.2-36.1,16.3-6.9,1.8-13.4,2.8-16.3,3.2-3.2.4-5.9.6-7.9.7-58.1,0-116.3.2-174.4.3V55.6h0Z"/>
      <path class="cls-8" d="M2327,74.8h146.5c2.2,0,4.1,0,5.5.1,3.7.1,4.9.2,6.2.4,1.1.1,2.5.4,2.6.4,0,0,1.5.3,3.1.6,5.1,1.1,10.7,2.9,10.7,2.9,6.1,2,13.4,4.3,21.9,9,2.9,1.6,7.4,4.1,12.7,8.4,4.3,3.4,10.3,8.4,15.5,16.8,2.2,3.5,6.1,10,7.6,19.5.5,3,.9,7.8.2,13.4-1.8,14.3-9.7,24-13.4,28.4-6.5,7.7-13,11.8-18.4,15.1,0,0-13.7,8.6-30.9,12.6-2,.4-7.2,1.6-13.9,2.5-2.7.4-5,.6-6.6.7h-149.3V74.8h0Z"/>
      <rect class="cls-3" x="2365.8" y="19.1" width="19.1" height="242.9"/>
      <rect class="cls-12" x="2382.8" y="56.4" width="3.2" height="17.4"/>
      <rect class="cls-3" x="2365.9" y="19.1" width="140.3" height="19.1"/>
      <rect class="cls-12" x="2366.9" y="33.1" width="17.1" height="7.1"/>
      <rect class="cls-3" x="2365.9" y="243" width="140.3" height="19.1"/>
      <rect class="cls-3" x="2384.9" y="131" width="96.7" height="19.1"/>
      <rect class="cls-12" x="2366.8" y="240.3" width="17.1" height="7.1"/>
      <rect class="cls-12" x="2382.4" y="132" width="7.1" height="17.1"/>
      <rect class="cls-12" x="2364.6" y="56.5" width="3.2" height="17.4"/>
      <g>
        <path class="cls-14" d="M523.8,221.7h25.9c5.1,0,9.2.7,12.3,2.1,3.1,1.4,5.7,3.4,7.8,6,2.1,2.6,3.5,5.6,4.5,9s1.4,7.1,1.4,10.9c0,6-.7,10.7-2.1,14-1.4,3.3-3.3,6.1-5.7,8.3s-5.1,3.7-7.8,4.5c-3.8,1-7.3,1.5-10.4,1.5h-25.9v-56.3h0ZM541.2,234.5v30.8h4.3c3.6,0,6.2-.4,7.8-1.2s2.7-2.2,3.6-4.2c.9-2,1.3-5.3,1.3-9.8s-1-10.1-2.9-12.3c-1.9-2.2-5.2-3.3-9.7-3.3h-4.3Z"/>
        <path class="cls-14" d="M633.2,221.7h17.4v33.6c0,3.3-.5,6.5-1.6,9.4s-2.7,5.5-4.9,7.8c-2.2,2.2-4.5,3.8-7,4.7-3.4,1.2-7.4,1.9-12.2,1.9s-5.7-.2-9-.6c-3.2-.4-5.9-1.1-8.1-2.3-2.2-1.1-4.2-2.8-6-4.9s-3-4.3-3.7-6.5c-1.1-3.6-1.6-6.8-1.6-9.5v-33.6h17.4v34.4c0,3.1.8,5.5,2.6,7.2s4.1,2.6,7.1,2.6,5.3-.9,7.1-2.6,2.6-4.1,2.6-7.2v-34.4h0Z"/>
        <path class="cls-14" d="M673.9,221.7h28.9c6.3,0,11,1.5,14.2,4.5s4.7,7.3,4.7,12.8-1.7,10.1-5.1,13.3c-3.4,3.2-8.6,4.8-15.7,4.8h-9.5v20.9h-17.5v-56.3ZM691.3,245.7h4.3c3.4,0,5.7-.6,7.1-1.8s2-2.7,2-4.5-.6-3.3-1.8-4.5-3.4-1.8-6.7-1.8h-5v12.6h0Z"/>
        <path class="cls-14" d="M740.4,249.9c0-9.2,2.6-16.4,7.7-21.5,5.1-5.1,12.3-7.7,21.4-7.7s16.6,2.5,21.7,7.6,7.6,12.1,7.6,21.1-1.1,12-3.3,16.2c-2.2,4.2-5.4,7.5-9.6,9.8-4.2,2.3-9.4,3.5-15.7,3.5s-11.6-1-15.8-3c-4.2-2-7.5-5.2-10.1-9.6s-3.9-9.9-3.9-16.4h0ZM757.8,250c0,5.7,1.1,9.8,3.2,12.3s5,3.7,8.6,3.7,6.6-1.2,8.7-3.6,3.1-6.8,3.1-13.1-1.1-9.2-3.2-11.6-5-3.7-8.7-3.7-6.3,1.2-8.4,3.7-3.2,6.6-3.2,12.3h0Z"/>
        <path class="cls-14" d="M820,221.7h16.2l21.2,31.2v-31.2h16.4v56.3h-16.4l-21.1-30.9v30.9h-16.4v-56.3h0Z"/>
        <path class="cls-14" d="M893.3,221.7h52.9v13.9h-17.8v42.4h-17.4v-42.4h-17.8v-13.9Z"/>
        <path class="cls-14" d="M523.5,316.1h46.6v12h-29.2v8.9h27.1v11.5h-27.1v11.1h30v12.8h-47.5v-56.3h0Z"/>
        <path class="cls-14" d="M592.1,316.1h28.9c6.3,0,11,1.5,14.2,4.5s4.7,7.3,4.7,12.8-1.7,10.1-5.1,13.3c-3.4,3.2-8.6,4.8-15.7,4.8h-9.5v20.9h-17.5v-56.3ZM609.6,340.1h4.3c3.4,0,5.7-.6,7.1-1.8s2-2.7,2-4.5-.6-3.3-1.8-4.5-3.4-1.8-6.7-1.8h-5v12.6h0Z"/>
        <path class="cls-14" d="M661.5,316.1h17.4v56.3h-17.4v-56.3Z"/>
      </g>
      <g>
        <path class="cls-14" d="M701.9,331.8v-23.4h3.1v9.6h12.2v-9.6h3.1v23.4h-3.1v-11h-12.2v11h-3.1Z"/>
        <path class="cls-14" d="M736.9,329.7c-1.1.9-2.1,1.5-3.1,1.9-1,.4-2,.6-3.2.6-1.9,0-3.3-.5-4.3-1.4s-1.5-2.1-1.5-3.5.2-1.6.6-2.3.9-1.2,1.5-1.6c.6-.4,1.3-.7,2.1-.9.6-.1,1.4-.3,2.6-.4,2.3-.3,4-.6,5.1-1,0-.4,0-.6,0-.8,0-1.2-.3-2-.8-2.5-.7-.6-1.8-1-3.3-1s-2.3.2-3,.7c-.6.5-1.1,1.3-1.4,2.5l-2.8-.4c.2-1.2.7-2.2,1.3-2.9s1.4-1.3,2.5-1.7,2.4-.6,3.8-.6,2.6.2,3.5.5,1.6.8,2,1.3.7,1.2.9,2c0,.5.1,1.4.1,2.6v3.8c0,2.7,0,4.4.2,5.1s.4,1.4.7,2h-3c-.3-.6-.5-1.3-.6-2.1h0ZM736.7,323.3c-1,.4-2.6.8-4.7,1.1-1.2.2-2,.4-2.5.6-.5.2-.9.5-1.1.9-.3.4-.4.9-.4,1.4,0,.8.3,1.4.9,1.9s1.4.8,2.6.8,2.1-.2,3-.7,1.5-1.1,1.9-2c.3-.6.5-1.6.5-2.9v-1.1h0Z"/>
        <path class="cls-14" d="M747.5,331.8h-2.7v-23.4h2.9v8.4c1.2-1.5,2.8-2.3,4.6-2.3s2,.2,3,.6,1.7,1,2.3,1.8,1.1,1.7,1.4,2.8c.3,1.1.5,2.2.5,3.4,0,2.9-.7,5.1-2.2,6.7s-3.2,2.4-5.2,2.4-3.6-.8-4.7-2.5v2.1h0ZM747.5,323.2c0,2,.3,3.5.8,4.4.9,1.5,2.1,2.2,3.7,2.2s2.3-.6,3.3-1.6,1.4-2.7,1.4-4.9-.4-3.9-1.3-4.9c-.9-1.1-1.9-1.6-3.2-1.6s-2.3.6-3.3,1.6-1.4,2.7-1.4,4.7h0Z"/>
        <path class="cls-14" d="M763.9,311.7v-3.3h2.9v3.3h-2.9ZM763.9,331.8v-17h2.9v17h-2.9Z"/>
        <path class="cls-14" d="M771.9,331.8v-23.4h2.9v23.4h-2.9Z"/>
        <path class="cls-14" d="M780,331.8v-23.4h2.9v23.4h-2.9Z"/>
        <path class="cls-14" d="M799.8,326.3l3,.4c-.5,1.7-1.3,3.1-2.6,4-1.3,1-2.9,1.4-4.9,1.4s-4.4-.8-5.9-2.3-2.2-3.7-2.2-6.4.7-5.1,2.2-6.6,3.4-2.4,5.7-2.4,4.1.8,5.6,2.3,2.2,3.7,2.2,6.5,0,.4,0,.8h-12.6c.1,1.9.6,3.3,1.6,4.3.9,1,2.1,1.5,3.6,1.5s1.9-.3,2.7-.8,1.3-1.4,1.8-2.6h0ZM790.3,321.7h9.5c-.1-1.4-.5-2.5-1.1-3.2-.9-1.1-2.1-1.7-3.6-1.7s-2.4.4-3.3,1.3c-.9.9-1.4,2.1-1.5,3.6h0Z"/>
        <path class="cls-14" d="M805.7,331.8v-2.3l10.8-12.4c-1.2,0-2.3.1-3.2.1h-6.9v-2.3h13.9v1.9l-9.2,10.8-1.8,2c1.3-.1,2.5-.1,3.6-.1h7.8v2.5h-15Z"/>
        <path class="cls-14" d="M839,331.8l-6.4-17h3l3.6,10.2c.4,1.1.8,2.2,1.1,3.4.3-.9.6-2,1.1-3.2l3.8-10.4h3l-6.4,17h-2.7Z"/>
        <path class="cls-14" d="M850.4,323.3c0-3.1.9-5.5,2.6-7,1.5-1.3,3.2-1.9,5.3-1.9s4.2.8,5.7,2.3,2.2,3.6,2.2,6.3-.3,3.9-1,5.1c-.7,1.2-1.6,2.2-2.9,2.9-1.2.7-2.6,1-4.1,1-2.4,0-4.3-.8-5.8-2.3-1.5-1.5-2.2-3.7-2.2-6.6ZM853.3,323.3c0,2.2.5,3.8,1.4,4.9.9,1.1,2.1,1.6,3.6,1.6s2.6-.5,3.6-1.6c.9-1.1,1.4-2.7,1.4-5s-.5-3.7-1.4-4.8-2.1-1.6-3.6-1.6-2.6.5-3.6,1.6c-.9,1.1-1.4,2.7-1.4,4.9h0Z"/>
        <path class="cls-14" d="M869.3,326.7l2.8-.4c.2,1.1.6,2,1.3,2.6s1.8.9,3.1.9,2.3-.3,2.9-.8,1-1.2,1-1.9-.3-1.2-.9-1.5c-.4-.3-1.4-.6-2.9-1-2.1-.5-3.6-1-4.4-1.4s-1.4-.9-1.9-1.6c-.4-.7-.6-1.4-.6-2.3s.2-1.5.5-2.1c.4-.6.8-1.2,1.4-1.6.4-.3,1.1-.6,1.8-.8s1.6-.3,2.5-.3c1.3,0,2.5.2,3.5.6,1,.4,1.8.9,2.2,1.6s.8,1.5,1,2.6l-2.8.4c-.1-.9-.5-1.6-1.1-2s-1.5-.7-2.6-.7-2.3.2-2.8.7-.9.9-.9,1.5.1.7.4,1c.2.3.6.6,1.1.8.3.1,1.1.4,2.5.7,2,.5,3.4,1,4.3,1.3.8.4,1.4.9,1.9,1.5s.7,1.5.7,2.5-.3,1.9-.8,2.7c-.6.9-1.4,1.5-2.4,2-1.1.5-2.2.7-3.6.7-2.2,0-3.9-.5-5-1.4s-1.9-2.3-2.2-4.1h0Z"/>
        <path class="cls-14" d="M701.4,377.5v-23.5h2.6v2.2c.6-.9,1.3-1.5,2.1-1.9.8-.4,1.7-.6,2.8-.6s2.7.4,3.8,1.1c1.1.8,1.9,1.8,2.5,3.2.6,1.4.8,2.9.8,4.5s-.3,3.3-.9,4.7-1.5,2.5-2.7,3.2-2.4,1.1-3.8,1.1-1.8-.2-2.6-.6c-.8-.4-1.4-.9-1.9-1.5v8.3h-2.9,0ZM704,362.7c0,2.2.4,3.8,1.3,4.8.9,1,1.9,1.6,3.2,1.6s2.4-.5,3.3-1.6,1.4-2.8,1.4-5-.4-3.8-1.3-4.9c-.9-1.1-1.9-1.6-3.2-1.6s-2.3.6-3.2,1.7c-.9,1.1-1.4,2.8-1.4,5h0Z"/>
        <path class="cls-14" d="M720.4,371v-17h2.6v2.6c.7-1.2,1.3-2,1.8-2.4.6-.4,1.2-.6,1.8-.6,1,0,1.9.3,3,.9l-1,2.7c-.7-.4-1.4-.6-2.1-.6s-1.2.2-1.7.6c-.5.4-.9.9-1.1,1.6-.3,1-.5,2.1-.5,3.4v8.9h-2.9Z"/>
        <path class="cls-14" d="M731.1,362.6c0-3.1.9-5.5,2.6-7,1.5-1.3,3.2-1.9,5.3-1.9s4.2.8,5.7,2.3,2.2,3.6,2.2,6.3-.3,3.9-1,5.1c-.7,1.2-1.6,2.2-2.9,2.9-1.2.7-2.6,1-4.1,1-2.4,0-4.3-.8-5.8-2.3-1.5-1.5-2.2-3.7-2.2-6.6h0ZM734,362.6c0,2.2.5,3.8,1.4,4.9.9,1.1,2.1,1.6,3.6,1.6s2.6-.5,3.6-1.6c.9-1.1,1.4-2.7,1.4-5s-.5-3.7-1.4-4.8-2.1-1.6-3.6-1.6-2.6.5-3.6,1.6c-.9,1.1-1.4,2.7-1.4,4.9h0Z"/>
        <path class="cls-14" d="M751.9,371v-14.7h-2.5v-2.2h2.5v-1.8c0-1.1.1-2,.3-2.5.3-.8.8-1.4,1.5-1.8s1.7-.7,2.9-.7,1.7.1,2.7.3l-.4,2.5c-.6-.1-1.2-.2-1.7-.2-.9,0-1.5.2-1.9.6s-.5,1.1-.5,2.1v1.6h3.3v2.2h-3.3v14.7h-2.9,0Z"/>
        <path class="cls-14" d="M772.7,365.6l3,.4c-.5,1.7-1.3,3.1-2.6,4-1.3,1-2.9,1.4-4.9,1.4s-4.4-.8-5.9-2.3-2.2-3.7-2.2-6.4.7-5.1,2.2-6.6,3.4-2.4,5.7-2.4,4.1.8,5.6,2.3,2.2,3.7,2.2,6.5,0,.4,0,.8h-12.6c.1,1.9.6,3.3,1.6,4.3.9,1,2.1,1.5,3.6,1.5s1.9-.3,2.7-.8,1.3-1.4,1.8-2.6h0ZM763.2,360.9h9.5c-.1-1.4-.5-2.5-1.1-3.2-.9-1.1-2.1-1.7-3.6-1.7s-2.4.4-3.3,1.3c-.9.9-1.4,2.1-1.5,3.6h0Z"/>
        <path class="cls-14" d="M778.9,366l2.8-.4c.2,1.1.6,2,1.3,2.6s1.8.9,3.1.9,2.3-.3,2.9-.8,1-1.2,1-1.9-.3-1.2-.9-1.5c-.4-.3-1.4-.6-2.9-1-2.1-.5-3.6-1-4.4-1.4s-1.4-.9-1.9-1.6c-.4-.7-.6-1.4-.6-2.3s.2-1.5.5-2.1c.4-.6.8-1.2,1.4-1.6.4-.3,1.1-.6,1.8-.8s1.6-.3,2.5-.3c1.3,0,2.5.2,3.5.6,1,.4,1.8.9,2.2,1.6s.8,1.5,1,2.6l-2.8.4c-.1-.9-.5-1.6-1.1-2s-1.5-.7-2.6-.7-2.3.2-2.8.7-.9.9-.9,1.5.1.7.4,1c.2.3.6.6,1.1.8.3.1,1.1.4,2.5.7,2,.5,3.4,1,4.3,1.3.8.4,1.4.9,1.9,1.5s.7,1.5.7,2.5-.3,1.9-.8,2.7c-.6.9-1.4,1.5-2.4,2-1.1.5-2.2.7-3.6.7-2.2,0-3.9-.5-5-1.4s-1.9-2.3-2.2-4.1h0Z"/>
        <path class="cls-14" d="M796.1,366l2.8-.4c.2,1.1.6,2,1.3,2.6s1.8.9,3.1.9,2.3-.3,2.9-.8,1-1.2,1-1.9-.3-1.2-.9-1.5c-.4-.3-1.4-.6-2.9-1-2.1-.5-3.6-1-4.4-1.4s-1.4-.9-1.9-1.6c-.4-.7-.6-1.4-.6-2.3s.2-1.5.5-2.1c.4-.6.8-1.2,1.4-1.6.4-.3,1.1-.6,1.8-.8s1.6-.3,2.5-.3c1.3,0,2.5.2,3.5.6,1,.4,1.8.9,2.2,1.6s.8,1.5,1,2.6l-2.8.4c-.1-.9-.5-1.6-1.1-2s-1.5-.7-2.6-.7-2.3.2-2.8.7-.9.9-.9,1.5.1.7.4,1c.2.3.6.6,1.1.8.3.1,1.1.4,2.5.7,2,.5,3.4,1,4.3,1.3.8.4,1.4.9,1.9,1.5s.7,1.5.7,2.5-.3,1.9-.8,2.7c-.6.9-1.4,1.5-2.4,2-1.1.5-2.2.7-3.6.7-2.2,0-3.9-.5-5-1.4s-1.9-2.3-2.2-4.1h0Z"/>
        <path class="cls-14" d="M814.5,350.9v-3.3h2.9v3.3h-2.9ZM814.5,371v-17h2.9v17h-2.9Z"/>
        <path class="cls-14" d="M821.5,362.6c0-3.1.9-5.5,2.6-7,1.5-1.3,3.2-1.9,5.3-1.9s4.2.8,5.7,2.3,2.2,3.6,2.2,6.3-.3,3.9-1,5.1c-.7,1.2-1.6,2.2-2.9,2.9-1.2.7-2.6,1-4.1,1-2.4,0-4.3-.8-5.8-2.3-1.5-1.5-2.2-3.7-2.2-6.6ZM824.4,362.6c0,2.2.5,3.8,1.4,4.9.9,1.1,2.1,1.6,3.6,1.6s2.6-.5,3.6-1.6c.9-1.1,1.4-2.7,1.4-5s-.5-3.7-1.4-4.8-2.1-1.6-3.6-1.6-2.6.5-3.6,1.6c-.9,1.1-1.4,2.7-1.4,4.9h0Z"/>
        <path class="cls-14" d="M841.5,371v-17h2.6v2.4c1.2-1.9,3.1-2.8,5.4-2.8s2,.2,2.8.6,1.5.9,1.9,1.4c.4.6.7,1.3.9,2.1.1.5.2,1.5.2,2.8v10.4h-2.9v-10.3c0-1.2-.1-2.1-.3-2.6-.2-.6-.6-1-1.2-1.4-.6-.4-1.2-.5-2-.5-1.2,0-2.3.4-3.2,1.2s-1.3,2.2-1.3,4.4v9.3h-2.9,0Z"/>
        <path class="cls-14" d="M872.2,365.6l3,.4c-.5,1.7-1.3,3.1-2.6,4-1.3,1-2.9,1.4-4.9,1.4s-4.4-.8-5.9-2.3-2.2-3.7-2.2-6.4.7-5.1,2.2-6.6,3.4-2.4,5.7-2.4,4.1.8,5.6,2.3,2.2,3.7,2.2,6.5,0,.4,0,.8h-12.6c.1,1.9.6,3.3,1.6,4.3.9,1,2.1,1.5,3.6,1.5s1.9-.3,2.7-.8,1.3-1.4,1.8-2.6h0ZM862.7,360.9h9.5c-.1-1.4-.5-2.5-1.1-3.2-.9-1.1-2.1-1.7-3.6-1.7s-2.4.4-3.3,1.3c-.9.9-1.4,2.1-1.5,3.6h0Z"/>
        <path class="cls-14" d="M879.5,371v-23.4h2.9v23.4h-2.9Z"/>
        <path class="cls-14" d="M886.5,366l2.8-.4c.2,1.1.6,2,1.3,2.6s1.8.9,3.1.9,2.3-.3,2.9-.8,1-1.2,1-1.9-.3-1.2-.9-1.5c-.4-.3-1.4-.6-2.9-1-2.1-.5-3.6-1-4.4-1.4s-1.4-.9-1.9-1.6c-.4-.7-.6-1.4-.6-2.3s.2-1.5.5-2.1c.4-.6.8-1.2,1.4-1.6.4-.3,1.1-.6,1.8-.8s1.6-.3,2.5-.3c1.3,0,2.5.2,3.5.6,1,.4,1.8.9,2.2,1.6s.8,1.5,1,2.6l-2.8.4c-.1-.9-.5-1.6-1.1-2s-1.5-.7-2.6-.7-2.3.2-2.8.7-.9.9-.9,1.5.1.7.4,1c.2.3.6.6,1.1.8.3.1,1.1.4,2.5.7,2,.5,3.4,1,4.3,1.3.8.4,1.4.9,1.9,1.5s.7,1.5.7,2.5-.3,1.9-.8,2.7c-.6.9-1.4,1.5-2.4,2-1.1.5-2.2.7-3.6.7-2.2,0-3.9-.5-5-1.4s-1.9-2.3-2.2-4.1h0Z"/>
      </g>
      <g id="WUQQzM">
        <image id="WUQQzM-2" data-name="WUQQzM" width="820" height="1180" transform="translate(-1053.8 -256.1)" xlink:href="logo-dupont-epi-final-1.png"/>
      </g>
    </g>
  </g>
</svg>