<svg width="64" height="64" viewBox="0 0 64 64" fill="none" xmlns="http://www.w3.org/2000/svg">
<path fill-rule="evenodd" clip-rule="evenodd" d="M44 12C44 9.79086 45.7908 8 48 8C50.2092 8 52 9.79086 52 12C52 14.2091 50.2092 16 48 16C45.7908 16 44 14.2091 44 12ZM36.6828 16H0V8H36.6828C38.3302 3.33924 42.7752 0 48 0C53.2248 0 57.6698 3.33924 59.3172 8H64V16H59.3172C57.6698 20.6608 53.2248 24 48 24C42.7752 24 38.3302 20.6608 36.6828 16ZM12 32C12 29.7908 13.7909 28 16 28C18.2092 28 20 29.7908 20 32C20 34.2092 18.2092 36 16 36C13.7909 36 12 34.2092 12 32ZM4.68282 36H0V28H4.68282C6.33016 23.3392 10.7751 20 16 20C21.2248 20 25.6698 23.3392 27.3172 28H64V36H27.3172C25.6698 40.6608 21.2248 44 16 44C10.7751 44 6.33016 40.6608 4.68282 36ZM48 48C45.7908 48 44 49.7908 44 52C44 54.2092 45.7908 56 48 56C50.2092 56 52 54.2092 52 52C52 49.7908 50.2092 48 48 48ZM36.6828 48C38.3302 43.3392 42.7752 40 48 40C53.2248 40 57.6698 43.3392 59.3172 48H64V56H59.3172C57.6698 60.6608 53.2248 64 48 64C42.7752 64 38.3302 60.6608 36.6828 56H0V48H36.6828Z" fill="#124761"/>
</svg>
