<svg width="90" height="64" viewBox="0 0 90 64" fill="none" xmlns="http://www.w3.org/2000/svg">
<path d="M51.9634 34.7816C52.7325 34.7816 53.356 34.1587 53.356 33.3903C53.356 32.6219 52.7325 31.999 51.9634 31.999C51.1943 31.999 50.5708 32.6219 50.5708 33.3903C50.5708 34.1587 51.1943 34.7816 51.9634 34.7816Z" fill="#124761"/>
<path d="M21.3262 34.7816C22.0953 34.7816 22.7188 34.1587 22.7188 33.3903C22.7188 32.6219 22.0953 31.999 21.3262 31.999C20.5571 31.999 19.9336 32.6219 19.9336 33.3903C19.9336 34.1587 20.5571 34.7816 21.3262 34.7816Z" fill="#124761"/>
<path d="M36.6446 34.7816C37.4137 34.7816 38.0372 34.1587 38.0372 33.3903C38.0372 32.6219 37.4137 31.999 36.6446 31.999C35.8754 31.999 35.252 32.6219 35.252 33.3903C35.252 34.1587 35.8754 34.7816 36.6446 34.7816Z" fill="#124761"/>
<path d="M70.067 31.0948V27.8253C67.764 27.8253 65.8892 25.9523 65.8892 23.6515C65.8892 21.3507 67.764 19.4777 70.067 19.4777H72.8522V11.1301C72.8522 4.98247 67.8649 0 61.7114 0H11.5778C5.42426 0 0.437012 4.98247 0.437012 11.1301V40.3467C0.437012 46.4944 5.42426 51.4769 11.5778 51.4769H30.7052L34.0509 57.0471C34.4513 57.7132 35.0988 58.1932 35.8282 58.3602C36.0388 58.4088 36.2512 58.4332 36.4618 58.4332C37.4262 58.4332 38.3366 57.9341 38.8484 57.0819L42.215 51.4769H56.3551C56.2141 50.5691 56.141 49.6404 56.141 48.6943C56.141 40.1572 62.0926 32.9835 70.067 31.0948ZM21.326 37.5642C19.023 37.5642 17.1482 35.6912 17.1482 33.3904C17.1482 31.0896 19.023 29.2166 21.326 29.2166C23.629 29.2166 25.5038 31.0896 25.5038 33.3904C25.5038 35.6912 23.629 37.5642 21.326 37.5642ZM36.6446 37.5642C34.3416 37.5642 32.4668 35.6912 32.4668 33.3904C32.4668 31.0896 34.3416 29.2166 36.6446 29.2166C38.9476 29.2166 40.8224 31.0896 40.8224 33.3904C40.8224 35.6912 38.9476 37.5642 36.6446 37.5642ZM51.9632 37.5642C49.6602 37.5642 47.7854 35.6912 47.7854 33.3904C47.7854 31.0896 49.6602 29.2166 51.9632 29.2166C54.2662 29.2166 56.141 31.0896 56.141 33.3904C56.141 35.6912 54.2662 37.5642 51.9632 37.5642Z" fill="#124761"/>
<path d="M68.6743 23.6515C68.6743 24.4185 69.2992 25.0428 70.0669 25.0428H78.4225C79.1902 25.0428 79.8151 24.4185 79.8151 23.6515C79.8151 22.8846 79.1902 22.2603 78.4225 22.2603H70.0669C69.2992 22.2603 68.6743 22.8846 68.6743 23.6515Z" fill="#124761"/>
<path d="M74.2447 30.608C74.7129 30.608 75.1777 30.6254 75.6372 30.6601V27.8254H72.8521V30.6601C73.3116 30.6254 73.7764 30.608 74.2447 30.608Z" fill="#124761"/>
<path d="M74.2447 50.0855C75.0138 50.0855 75.6372 49.4626 75.6372 48.6942C75.6372 47.9259 75.0138 47.303 74.2447 47.303C73.4755 47.303 72.8521 47.9259 72.8521 48.6942C72.8521 49.4626 73.4755 50.0855 74.2447 50.0855Z" fill="#124761"/>
<path d="M83.7929 36.7364L85.6711 34.3556L86.1377 34.693C86.3849 34.8704 86.6686 34.9573 86.9523 34.9573C87.384 34.9573 87.8105 34.7573 88.0821 34.3799C88.5329 33.7574 88.3919 32.8878 87.7687 32.4374L84.6354 30.1766C84.0122 29.7262 83.1418 29.867 82.691 30.4896C82.2401 31.1122 82.3811 31.9817 83.0043 32.4322L83.4116 32.7261L81.4603 35.199C79.3087 34.046 76.8525 33.3921 74.2449 33.3921C65.7987 33.3921 58.9263 40.258 58.9263 48.6961C58.9263 57.1341 65.7987 64 74.2449 64C82.691 64 89.5635 57.1341 89.5635 48.6961C89.5635 43.8614 87.3074 39.545 83.7929 36.7381V36.7364ZM74.2449 52.8681C71.9419 52.8681 70.0671 50.9951 70.0671 48.6943C70.0671 48.0509 70.2133 47.4405 70.4761 46.8961L66.2983 42.7223C65.7552 42.1797 65.7552 41.298 66.2983 40.7554C66.8415 40.2128 67.724 40.2128 68.2671 40.7554L72.4449 44.9292C72.9898 44.6684 73.6008 44.5205 74.2449 44.5205C76.5479 44.5205 78.4227 46.3935 78.4227 48.6943C78.4227 50.9951 76.5479 52.8681 74.2449 52.8681Z" fill="#124761"/>
</svg>
