<svg width="55" height="57" viewBox="0 0 55 57" fill="none" xmlns="http://www.w3.org/2000/svg">
<path d="M43.1546 21.0593L41.4758 21.6967C40.3832 22.1115 39.1585 21.6397 38.6258 20.5994C37.2096 17.8337 34.8627 15.6055 32.0166 14.3259C28.659 12.8162 24.9148 12.7045 21.4733 14.0112C18.0318 15.3178 15.3052 17.8863 13.7956 21.2439C12.5159 24.0899 12.2392 27.3143 13.0154 30.323C13.3073 31.4547 12.7043 32.6204 11.6117 33.0352L9.93475 33.6719C9.31364 33.9077 8.67282 33.8732 8.08214 33.571C7.49053 33.269 7.08709 32.7708 6.91351 32.1293C5.70648 27.6626 6.09018 22.8708 7.99503 18.6343C10.2017 13.7264 14.1867 9.97169 19.2167 8.06193C24.2468 6.15217 29.7196 6.31607 34.6274 8.52274C38.864 10.4276 42.3312 13.7573 44.3927 17.8995C44.6882 18.4937 44.7166 19.1354 44.4753 19.7535C44.2318 20.3714 43.7757 20.8235 43.1546 21.0593ZM21.117 13.0697C24.8097 11.6677 28.8273 11.7876 32.4299 13.4066C35.4837 14.7797 38.0024 17.1709 39.5225 20.1395C39.8201 20.722 40.5073 20.9866 41.119 20.7543L42.7979 20.1169C43.1555 19.9811 43.3974 19.7418 43.5366 19.3853C43.6758 19.0288 43.6609 18.6888 43.491 18.3463C41.5333 14.4123 38.2389 11.2485 34.2143 9.43974C29.5513 7.3447 24.3519 7.189 19.5731 9.00336C14.7943 10.8177 11.0084 14.3849 8.91204 19.0474C7.10234 23.0723 6.73746 27.6243 7.88431 31.8673C7.98361 32.2366 8.19806 32.5008 8.53879 32.6751C8.87952 32.8494 9.21926 32.8679 9.57687 32.7321L11.2567 32.0943C11.8684 31.8621 12.2063 31.2094 12.0429 30.5748C11.2089 27.3458 11.5059 23.8855 12.8799 20.8314C14.4985 17.2278 17.4242 14.4718 21.117 13.0697Z" fill="white" fill-opacity="0.1"/>
<path d="M16.7332 48.0302L14.6036 48.8388C13.6917 49.185 12.6686 48.725 12.3223 47.8131L9.73944 41.0101C9.39322 40.0982 9.85323 39.075 10.7651 38.7288L11.3731 38.498C11.7664 38.3487 11.964 37.9076 11.815 37.5151L10.1246 33.0629C10.026 32.8032 10.1568 32.5124 10.4165 32.4137C10.6762 32.3151 10.9671 32.4459 11.0657 32.7056L12.7561 37.1578C13.1023 38.0697 12.6423 39.0929 11.7304 39.4391L11.1224 39.6699C10.7291 39.8192 10.5315 40.2603 10.6805 40.6528L13.2634 47.4558C13.4128 47.8491 13.8539 48.0467 14.2463 47.8977L16.3759 47.0891C16.6357 46.9905 16.9265 47.1213 17.0251 47.381C17.1237 47.6408 16.993 47.9316 16.7332 48.0302Z" fill="white" fill-opacity="0.1"/>
<path d="M24.7877 51.2325L19.9666 53.0629C19.0707 53.4031 18.0657 52.9513 17.7256 52.0554L14.4463 43.4182C14.1061 42.5223 14.558 41.5173 15.4539 41.1772L20.275 39.3468C20.5347 39.2481 20.8256 39.3789 20.9242 39.6386C21.0228 39.8984 20.892 40.1892 20.6323 40.2878L15.8112 42.1183C15.4348 42.2612 15.2444 42.6845 15.3874 43.0609L18.6666 51.6981C18.8096 52.0745 19.2328 52.2648 19.6093 52.1219L24.4304 50.2914C24.6901 50.1928 24.9809 50.3236 25.0796 50.5833C25.1782 50.8431 25.0474 51.1339 24.7877 51.2325Z" fill="white" fill-opacity="0.1"/>
<path d="M28.5612 51.8991L25.482 53.0681C25.2223 53.1667 24.9315 53.036 24.8329 52.7762L19.2851 38.1642C19.1865 37.9045 19.3172 37.6136 19.577 37.515L22.6562 36.3459C23.3215 36.0933 24.069 36.4286 24.322 37.0949L29.3106 50.2342C29.5632 50.8995 29.2266 51.6464 28.5612 51.8991ZM25.5953 51.9484L28.2039 50.958C28.3479 50.9033 28.4238 50.7345 28.3691 50.5905L23.3806 37.4513C23.3259 37.3073 23.1571 37.2314 23.0131 37.2861L20.4045 38.2765L25.5953 51.9484Z" fill="white" fill-opacity="0.1"/>
<path d="M49.7241 35.5042L47.5945 36.3128C47.3347 36.4114 47.0439 36.2806 46.9453 36.0209C46.8467 35.7611 46.9774 35.4703 47.2372 35.3717L49.3668 34.5631C49.7602 34.4138 49.9577 33.9727 49.8088 33.5803L47.2258 26.7772C47.0765 26.3839 46.6354 26.1863 46.243 26.3353L45.635 26.5661C44.7231 26.9124 43.7 26.4524 43.3538 25.5405L41.6634 21.0882C41.5648 20.8285 41.6956 20.5377 41.9553 20.439C42.2151 20.3404 42.5059 20.4712 42.6045 20.7309L44.2949 25.1832C44.4442 25.5765 44.8853 25.7741 45.2777 25.6251L45.8857 25.3943C46.7976 25.048 47.8207 25.508 48.1669 26.4199L50.7498 33.223C51.097 34.1345 50.636 35.158 49.7241 35.5042Z" fill="white" fill-opacity="0.1"/>
<path d="M48.5206 42.2218L43.6995 44.0522C43.4398 44.1508 43.1489 44.02 43.0503 43.7603C42.9517 43.5006 43.0825 43.2097 43.3422 43.1111L48.1633 41.2807C48.5398 41.1378 48.7301 40.7145 48.5872 40.3381L45.3079 31.7009C45.165 31.3245 44.7417 31.1342 44.3653 31.2771L39.5441 33.1075C39.2844 33.2061 38.9936 33.0754 38.895 32.8156C38.7963 32.5559 38.9271 32.2651 39.1868 32.1664L44.008 30.336C44.9039 29.9959 45.9088 30.4477 46.2489 31.3436L49.5282 39.9808C49.8684 40.8767 49.4165 41.8816 48.5206 42.2218Z" fill="white" fill-opacity="0.1"/>
<path d="M44.3985 45.8856L41.3194 47.0547C40.654 47.3073 39.9065 46.972 39.6536 46.3057L34.665 33.1664C34.4123 32.5011 34.7477 31.7536 35.4139 31.5006L38.4931 30.3316C38.7529 30.2329 39.0437 30.3637 39.1423 30.6234L44.6901 45.2355C44.7891 45.4962 44.6583 45.787 44.3985 45.8856ZM35.7716 32.4426C35.6276 32.4973 35.5514 32.6652 35.6064 32.8101L40.595 45.9493C40.6496 46.0933 40.8175 46.1696 40.9624 46.1146L43.5711 45.1241L38.3802 31.4522L35.7716 32.4426Z" fill="white" fill-opacity="0.1"/>
</svg>
