<svg width="38" height="31" viewBox="0 0 38 31" fill="none" xmlns="http://www.w3.org/2000/svg">
<path d="M36.0037 17.2398L34.8144 17.3616C34.7971 16.9971 34.767 16.6451 34.7237 16.3038C34.0218 10.7625 29.893 6.07287 24.1794 4.28764L24.2581 3.12707C24.2617 2.74189 24.0957 2.37275 23.8073 2.12029C23.5206 1.86761 23.1388 1.74799 22.7548 1.79663L21.3895 1.96957L21.3924 1.57905C21.396 1.19387 21.2305 0.828283 20.9416 0.572274C20.6549 0.319589 20.273 0.199975 19.8944 0.247937L13.0625 1.11333C12.6785 1.16197 12.335 1.37345 12.1193 1.6952C11.9053 2.01672 11.8395 2.40981 11.9439 2.77769L12.0434 3.14982L10.6781 3.32276C10.2942 3.37139 9.95068 3.58288 9.7396 3.89862C9.52497 4.21481 9.45983 4.61323 9.55536 4.99666L9.87194 6.12699C4.8148 9.28186 2.00119 14.8312 2.70125 20.3579C2.74516 20.7046 2.80374 21.053 2.86127 21.4358L1.69508 21.5836C0.964426 21.6761 0.447469 22.3431 0.540014 23.0737L0.871482 25.6905C0.956827 26.3643 1.53374 26.8547 2.19808 26.8519L6.82874 29.3431C9.01526 30.5202 11.4776 30.9796 13.9417 30.6674L26.537 29.072C29.0027 28.7597 31.2708 27.7011 33.0951 26.016L36.9968 22.4096C37.5469 22.19 37.9034 21.6247 37.8255 21.0095L37.494 18.3927C37.4015 17.6621 36.7345 17.1451 36.0039 17.2377L36.0037 17.2398ZM21.3796 2.83245L22.864 2.64442C23.0009 2.62709 23.1325 2.66821 23.234 2.7565C23.338 2.8499 23.3919 2.97673 23.3975 3.09163L22.9844 9.22727C22.4953 8.74554 21.9381 8.33929 21.3288 8.02089L21.3789 2.82689L21.3796 2.83245ZM24.1227 13.3514L25.3537 23.0699L13.4552 24.5771L12.2242 14.8585C11.8087 11.5786 14.1389 8.57059 17.4204 8.15492C20.7003 7.73946 23.7084 10.0696 24.1241 13.3512L24.1227 13.3514ZM12.8314 2.1669C12.9088 2.05053 13.0296 1.97743 13.1665 1.96009L19.9984 1.0947C20.1353 1.07737 20.2669 1.11849 20.3691 1.21212C20.4731 1.30552 20.5324 1.43166 20.5297 1.56747L20.4715 7.65308C19.4877 7.30087 18.4152 7.16215 17.3112 7.30198C16.2073 7.44182 15.2033 7.84354 14.3412 8.42418L12.7728 2.54461C12.7364 2.41376 12.7593 2.28081 12.8351 2.16645L12.8314 2.1669ZM10.4436 4.37677C10.5209 4.2604 10.6417 4.1873 10.7786 4.16996L12.263 3.98193L13.6006 8.99461C12.9909 9.54325 12.4812 10.1967 12.1019 10.9238L10.377 4.76447C10.3402 4.63006 10.3624 4.49178 10.4433 4.37495L10.4436 4.37677ZM1.72535 25.5848L1.39388 22.968C1.36146 22.712 1.54243 22.4724 1.80374 22.4393L2.96992 22.2915C3.21169 22.2609 3.43198 22.1319 3.57452 21.9314C3.71707 21.7309 3.77114 21.473 3.72206 21.2281C3.65151 20.8993 3.60119 20.5733 3.56043 20.2515C2.91191 15.1317 5.47745 9.98947 10.1174 6.99403L11.5816 12.2362C11.3352 13.1001 11.2538 14.0261 11.3734 14.9701L12.6044 24.6887L2.24913 26.0004C1.99314 26.0328 1.75349 25.8519 1.72039 25.5906L1.72535 25.5848ZM32.5073 25.3849C30.8178 26.9482 28.7111 27.9267 26.4266 28.216L13.8313 29.8114C11.547 30.1008 9.26251 29.6767 7.23673 28.5859L3.69098 26.6742L35.4642 22.6514L32.5071 25.3867L32.5073 25.3849ZM36.9667 21.1208C36.9998 21.3822 36.8181 21.6165 36.5568 21.6496L26.2088 22.9603L24.9778 13.2417C24.8325 12.0951 24.4052 11.0457 23.7838 10.1616L24.1195 5.16818C29.405 6.89736 33.2144 11.261 33.8665 16.4091C33.9069 16.7273 33.9345 17.0597 33.9542 17.4004C33.9659 17.65 34.0819 17.881 34.2717 18.0394C34.4594 18.1944 34.7053 18.268 34.9471 18.2374L36.1132 18.0897C36.3692 18.0573 36.6089 18.2382 36.642 18.4995L36.9734 21.1164L36.9667 21.1208Z" fill="white" fill-opacity="0.1"/>
</svg>
