<svg width="53" height="46" viewBox="0 0 53 46" fill="none" xmlns="http://www.w3.org/2000/svg">
<path d="M47.1581 13.2983C47.3198 10.6576 47.7811 8.0272 48.5293 5.4776C48.5853 5.28932 48.5341 5.08412 48.3983 4.94123C48.2625 4.79835 48.062 4.73905 47.8707 4.7887C45.0323 5.51012 42.1248 6.07172 39.2292 6.45488C37.3076 6.71066 35.3525 6.8864 33.3799 6.99308C33.156 6.19194 32.6774 5.03387 31.6346 4.01705C30.6532 3.0617 29.5738 2.61497 28.8419 2.4079C28.6818 2.36301 28.5137 2.39251 28.3776 2.48927C28.2436 2.58577 28.1595 2.73867 28.15 2.90392L27.7267 10.3196C27.3749 10.9957 27.1372 11.7441 27.0517 12.5426C26.6383 16.3716 24.9666 19.8346 22.422 22.4731C22.4141 22.4784 22.4059 22.4816 22.4001 22.4866C22.3924 22.494 22.3914 22.5028 22.3837 22.5102C20.4217 24.5325 17.9441 26.0683 15.1227 26.9085L9.2889 28.6428C6.28114 29.5385 4.26 32.3647 4.37932 35.5211C4.42773 36.7413 4.62913 37.9488 4.96397 39.1248C4.8551 39.1814 4.74939 39.2464 4.65742 39.3355C4.36591 39.6156 4.22791 40.0083 4.27778 40.4102L4.36961 41.15C4.53321 42.4681 5.50619 43.5626 6.79197 43.8737C8.92508 44.3882 11.113 44.5138 13.2903 44.2436L26.6952 42.5798C29.3208 42.2539 31.8941 41.3344 34.1361 39.9228L38.3546 37.2643L38.7599 40.5297C38.7971 40.8295 39.0706 41.0438 39.3686 41.0068L49.9026 39.6993C50.1711 39.666 50.3746 39.4378 50.3794 39.1653L50.5257 30.7799C50.5276 30.622 50.4634 30.4681 50.345 30.3619C50.2267 30.2557 50.0702 30.2061 49.9117 30.2257L49.7848 30.2415C49.7405 28.4315 49.5503 26.6224 49.1973 24.8508C48.8877 23.2897 48.389 21.9182 47.949 20.7078C47.8056 20.3133 47.6654 19.9271 47.5402 19.5584L47.5399 19.5562L47.5397 19.5541C47.4145 19.1854 47.3038 18.83 47.2191 18.493C46.9024 17.2392 47.0042 15.6896 47.1139 14.0484L47.1581 13.2983ZM39.3712 7.54489C42.0005 7.19696 44.6377 6.70558 47.226 6.07995C46.6967 8.07552 46.347 10.1179 46.1595 12.1701L37.2577 13.275C36.911 13.318 36.5924 13.0683 36.5491 12.7196L35.953 7.91719C37.0978 7.81828 38.2392 7.69404 39.3712 7.54489ZM29.1973 3.69591C29.7163 3.91644 30.3152 4.26302 30.8746 4.80883C31.6534 5.56701 32.056 6.42367 32.2656 7.0755C30.9637 7.27379 29.8054 7.86871 28.9084 8.73558L29.1973 3.69591ZM25.0172 21.0199L26.9243 22.0655C26.9245 22.1021 26.9224 22.1369 26.9269 22.1731C27.0045 22.7981 27.5728 23.2435 28.1943 23.1663C28.8158 23.0892 29.2579 22.5184 29.1804 21.8934C29.1028 21.2684 28.5345 20.823 27.913 20.9001C27.7291 20.923 27.566 20.9929 27.4215 21.0907L25.6203 20.1032C26.071 19.3587 26.4704 18.5816 26.8122 17.7729L28.7939 18.4681C28.8733 19.0907 29.4392 19.5342 30.0607 19.4571C30.6822 19.3799 31.1244 18.8091 31.0468 18.1841C30.9692 17.5591 30.4009 17.1137 29.7794 17.1909C29.5553 17.2187 29.3566 17.3124 29.1951 17.4469L27.2023 16.7488C27.4913 15.9293 27.7213 15.0848 27.8906 14.2175L29.6231 14.825C29.7253 15.4232 30.2753 15.8428 30.8799 15.7678C31.5014 15.6906 31.9436 15.1198 31.866 14.4948C31.7884 13.8698 31.2201 13.4244 30.5986 13.5016C30.3598 13.5312 30.1473 13.6353 29.9795 13.7878L28.0673 13.1163C28.0871 12.9649 28.116 12.8167 28.1334 12.6634C28.2094 11.9611 28.4262 11.3039 28.7484 10.7177C28.7537 10.7084 28.759 10.6991 28.7622 10.6901C29.5334 9.31213 30.9108 8.33815 32.5299 8.13504C33.3052 8.10358 34.0826 8.05457 34.8613 7.99894L35.4637 12.8524C35.5814 13.8006 36.4448 14.4792 37.3898 14.3619L46.0632 13.2854L46.0182 13.9775C45.9024 15.708 45.794 17.3426 46.1552 18.7656C46.2049 18.9581 46.259 19.1521 46.32 19.3497C45.0777 19.7866 42.9377 20.8251 41.4713 23.1053C39.3621 26.3806 40.0879 29.9106 40.544 31.3887C39.1448 31.5645 37.7733 32.0153 36.536 32.7C36.4326 31.9011 36.1508 30.9108 35.4288 30.0398C33.8534 28.1392 30.8729 27.6111 28.1618 28.7722L21.4501 31.9906C19.3302 32.9143 17.2359 32.0042 16.6076 30.5733C16.1913 29.6234 16.4108 28.3656 17.1591 27.3381C17.9984 26.9921 18.8004 26.5882 19.5652 26.1263L20.6181 27.986C20.4878 28.1986 20.4228 28.4527 20.456 28.7206C20.5336 29.3456 21.1019 29.791 21.7234 29.7139C22.3449 29.6367 22.7871 29.0659 22.7095 28.4409C22.6372 27.8584 22.1363 27.4371 21.5663 27.4452L20.4858 25.5372C21.3006 24.9763 22.0599 24.3488 22.7652 23.6676L24.1284 25.1045C24.0808 25.2572 24.0602 25.4195 24.0813 25.5896C24.1589 26.2146 24.7272 26.6599 25.3487 26.5828C25.9702 26.5057 26.4123 25.9349 26.3348 25.3099C26.2572 24.6849 25.6889 24.2395 25.0674 24.3166C25.0167 24.3229 24.967 24.3377 24.9192 24.3501L23.5285 22.8821C24.0631 22.2955 24.5639 21.6742 25.0172 21.0199ZM5.46675 35.4809C5.36708 32.8273 7.06605 30.4491 9.59784 29.6967L15.4316 27.9624C15.4958 27.9436 15.5571 27.9187 15.6211 27.8978C15.2153 28.952 15.1927 30.0665 15.6087 31.0143C16.4473 32.9286 19.1703 34.1837 21.9026 32.9876L28.6109 29.7718C30.8613 28.8103 33.3213 29.2088 34.5912 30.7414C35.3082 31.6066 35.4764 32.6499 35.5011 33.3333L31.9593 35.5818C29.8423 36.9261 27.4071 37.8004 24.9167 38.1095L13.2752 39.5566C11.6179 39.7623 9.94309 39.7241 8.29587 39.4407L6.07633 39.0599C5.72351 37.8948 5.5141 36.6925 5.46675 35.4809ZM49.2914 38.6718L39.7677 39.8538L39.3239 36.278C39.3007 36.091 39.1842 35.9306 39.0154 35.8501C38.8465 35.7696 38.6505 35.7809 38.4911 35.8806L33.548 38.996C31.4396 40.3241 29.0224 41.1875 26.5512 41.4942L13.1505 43.1575C11.1021 43.4117 9.04634 43.2956 7.04114 42.8084C6.19587 42.6046 5.5568 41.883 5.4494 41.0178L5.35757 40.2779C5.34808 40.2014 5.38719 40.1534 5.40992 40.129C5.43292 40.1067 5.48419 40.0701 5.5587 40.0824L8.11595 40.5206C9.86808 40.819 11.6485 40.8614 13.4116 40.6426L25.0512 39.1979C27.6979 38.8694 30.2892 37.939 32.5414 36.5089L36.5588 33.9596C37.8043 33.1682 39.2348 32.656 40.6955 32.4747L49.4198 31.3919L49.2914 38.6718ZM41.6457 31.2535C41.2553 30.0974 40.4148 26.7673 42.3872 23.7033C43.6773 21.6975 45.566 20.7788 46.6706 20.3913C46.7527 20.6207 46.8349 20.8502 46.9202 21.0878C47.347 22.261 47.8317 23.5889 48.1247 25.0679C48.47 26.8124 48.6573 28.5981 48.694 30.381L41.6457 31.2535Z" fill="white" fill-opacity="0.1"/>
</svg>
