<svg width="82" height="80" viewBox="0 0 82 80" fill="none" xmlns="http://www.w3.org/2000/svg">
<path d="M15.0817 50.4254C12.4713 49.1135 10.045 47.4648 7.86455 45.5183C7.6246 45.3072 7.57146 44.9498 7.73795 44.6765L12.6644 36.6316C12.5846 35.8075 12.5677 33.2067 14.5018 28.4221C15.0025 27.1858 15.3958 26.2214 15.7193 25.431L15.7226 25.4299C16.5992 23.4096 17.3531 21.334 17.9777 19.2218C18.8315 16.4476 20.669 10.8053 21.4191 8.50807L21.4214 8.50918C21.7964 7.35775 22.9979 6.69237 24.1748 6.98269C25.3516 7.27303 26.1049 8.42083 25.9003 9.61534L25.3738 12.7497L27.7938 5.98639C28.231 4.76021 29.5528 4.08785 30.8011 4.45819C32.0505 4.82633 32.793 6.10784 32.4939 7.37498L30.4215 16.1412L34.6306 7.48036C35.2681 6.17578 36.8352 5.61984 38.1531 6.23064C39.4721 6.84477 40.0592 8.3995 39.4696 9.73078L34.8471 20.2467C36.4711 18.2449 38.5392 15.5571 40.4273 12.6771C41.1766 11.5338 42.7064 11.204 43.8575 11.9433C45.0075 12.6792 45.3528 14.2056 44.627 15.3633C43.234 17.5886 40.6223 21.7111 38.7802 24.3249C35.6857 28.7192 34.6437 31.4973 34.9132 31.9902L34.9154 31.9913C35.3592 32.212 37.7776 31.3367 39.9637 30.1234C40.7078 29.6672 41.5414 29.3781 42.4078 29.2748C43.6316 29.1406 44.7871 29.8543 45.2151 31.0073C45.6409 32.1591 45.2306 33.4544 44.2152 34.1483C40.9988 36.3485 37.6081 38.2842 34.0777 39.9361C26.7973 43.3283 25.8316 45.2872 25.4191 46.1224L25.3825 46.196C24.9312 47.1037 22.6737 52.2703 22.6526 52.3239L22.6537 52.3217C22.5329 52.5982 22.2392 52.7581 21.9395 52.712C19.5528 52.2985 17.2397 51.529 15.0817 50.4254ZM9.1637 44.8904C13.0037 48.1822 17.5957 50.5434 21.6431 51.3098C22.2216 49.9897 23.8053 46.3795 24.1923 45.6012L24.2266 45.5321C24.74 44.4884 25.8112 42.3173 33.5166 38.7304C36.9816 37.1099 40.3066 35.2112 43.463 33.0534C43.9891 32.7059 44.1981 32.0393 43.9629 31.455C43.7656 30.8674 43.1756 30.5045 42.5632 30.5949C41.8884 30.6766 41.2362 30.9031 40.6555 31.2541C39.1536 32.0928 35.6445 33.8694 34.2338 33.1206C33.9082 32.9365 33.6769 32.6184 33.6048 32.2488C33.1549 30.2838 36.3156 25.5161 37.6924 23.5582C39.5156 20.9712 42.1139 16.87 43.5004 14.6578C43.8389 14.1168 43.6781 13.4054 43.1405 13.0602C42.6017 12.7172 41.8881 12.8714 41.5395 13.4046C38.9195 17.3255 36.0317 21.0636 32.8986 24.5899C32.6809 24.8321 32.319 24.8775 32.0457 24.6999C31.7746 24.5234 31.6703 24.1738 31.7988 23.8762L38.2555 9.19586C38.5381 8.52693 38.2468 7.75347 37.5933 7.4341C36.9333 7.12815 36.1464 7.40723 35.8259 8.06289L28.9912 22.1216C28.8426 22.426 28.4899 22.5705 28.171 22.4565C27.8522 22.3425 27.671 22.0076 27.7483 21.6788L31.2023 7.06849C31.3391 6.48565 30.997 5.89829 30.4241 5.73029C29.849 5.56115 29.2449 5.86989 29.0456 6.43284L24.0963 20.2576C23.98 20.5809 23.6363 20.7632 23.3031 20.6782C22.9709 20.5909 22.7586 20.2628 22.8158 19.9241L24.5912 9.39452C24.678 8.88418 24.3584 8.39703 23.8569 8.27005C23.3565 8.14641 22.8459 8.42934 22.6832 8.9187C21.9342 11.2138 20.0987 16.8464 19.2473 19.6103C18.6105 21.7637 17.8444 23.875 16.9525 25.9317C16.629 26.7221 16.2346 27.6831 15.7372 28.9184C13.577 34.2585 14.0034 36.6175 14.0054 36.6414C14.037 36.8072 14.0073 36.9788 13.9207 37.1249L9.1637 44.8904Z" fill="white" fill-opacity="0.1"/>
<path d="M44.2512 73.5356C42.069 72.4812 40.06 71.1012 38.2895 69.4476C38.0718 69.2364 38.0243 68.9068 38.1719 68.6436C38.1996 68.5934 40.9566 63.6753 41.408 62.7674L41.4446 62.6938C41.8616 61.8609 42.8408 59.9084 41.1514 52.0564L41.1503 52.0586C40.3365 48.2466 39.8334 44.3749 39.6467 40.4825C39.5872 39.2541 40.3723 38.1452 41.5499 37.7906C42.7253 37.4349 43.994 37.9266 44.6234 38.9823C45.0718 39.7532 45.3476 40.6136 45.4287 41.5022C45.7738 43.9129 46.531 46.3617 47.0172 46.6035L47.0239 46.6068C47.5361 46.5166 49.1244 44.0102 50.7582 38.8898C51.7404 35.8179 53.4446 31.2606 54.3748 28.8193L54.3759 28.8171C54.8609 27.5395 56.2852 26.8903 57.5683 27.3643C58.8514 27.8381 59.5151 29.2557 59.0523 30.5444C57.8955 33.7882 57.0006 37.0593 56.3847 39.5622L61.9819 29.5251C62.6885 28.2549 64.2848 27.7858 65.5672 28.4679C66.8519 29.1512 67.351 30.7373 66.6923 32.0342L62.3316 40.614L68.0681 33.6697C68.898 32.6665 70.3678 32.485 71.4166 33.2568C72.4664 34.0319 72.7269 35.4883 72.012 36.5792L68.0822 42.5918L70.2658 40.2758L70.2624 40.2769C71.0936 39.394 72.4646 39.3052 73.4041 40.0672C74.3459 40.8303 74.5371 42.191 73.8454 43.185C72.1211 45.6682 68.9879 50.1626 67.3834 52.3939C66.0741 54.1712 64.873 56.0273 63.788 57.9519C63.3541 58.6847 62.8259 59.5791 62.1457 60.7179C59.4979 65.1479 57.414 66.7042 56.7089 67.1376L53.2677 75.921C53.1503 76.2187 52.8355 76.3932 52.5201 76.3282C49.6518 75.7642 46.8729 74.8247 44.2517 73.5353L44.2512 73.5356ZM39.5838 68.8367C42.6408 71.6001 47.2924 73.8351 52.2339 74.9126L55.5568 66.4342C55.6188 66.2759 55.7377 66.1486 55.8913 66.0748C55.9391 66.0513 58.0663 64.9505 61.0061 60.034C61.6852 58.8975 62.2123 58.0053 62.6451 57.2748C63.749 55.3175 64.9723 53.428 66.3072 51.616C67.9073 49.3937 71.0352 44.9044 72.7571 42.426C73.0313 42.0311 72.9811 41.4943 72.634 41.1576C72.4453 40.972 72.19 40.8701 71.9249 40.8774C71.661 40.8824 71.4106 40.9943 71.2317 41.1863L63.9043 48.9581L63.9032 48.9603C63.6676 49.2104 63.2778 49.2391 63.0078 49.0269C62.7389 48.8126 62.6768 48.4284 62.8644 48.1407L70.9025 35.8517C71.2288 35.3519 71.1115 34.6816 70.6284 34.3274C70.1487 33.9721 69.4739 34.0538 69.0918 34.5146L59.5293 46.0877C59.3138 46.3477 58.9352 46.4042 58.6519 46.2188C58.3686 46.0334 58.2709 45.665 58.4239 45.3628L65.5073 31.4305C65.8389 30.7804 65.5898 29.9835 64.943 29.6396C64.2985 29.2968 63.497 29.5325 63.1431 30.1715L55.3304 44.1833C55.1729 44.4666 54.8312 44.5943 54.5247 44.4836C54.2181 44.3729 54.0381 44.0581 54.0975 43.7372C55.0184 39.1104 56.2558 34.5522 57.8009 30.0967C58.019 29.4959 57.709 28.8327 57.1104 28.6101C56.5106 28.3898 55.8452 28.6931 55.6182 29.2895C54.6935 31.7198 52.9973 36.2499 52.0269 39.2922C51.2991 41.5727 49.4053 46.97 47.5647 47.7965C47.2264 47.9621 46.8333 47.9697 46.4899 47.8212C45.0326 47.1605 44.3423 43.2792 44.1081 41.6301C44.0419 40.9352 43.8266 40.2607 43.4766 39.6556C43.1791 39.1127 42.5337 38.8613 41.946 39.0586C41.3359 39.217 40.9262 39.7894 40.9744 40.4197C41.1577 44.2409 41.6505 48.0382 42.4498 51.7788C44.2381 60.0864 43.1535 62.2508 42.6313 63.29L42.5969 63.3591C42.2099 64.1374 40.2895 67.5801 39.5861 68.8381L39.5838 68.8367Z" fill="white" fill-opacity="0.1"/>
</svg>
