<svg width="41" height="30" viewBox="0 0 41 30" fill="none" xmlns="http://www.w3.org/2000/svg">
<path fill-rule="evenodd" clip-rule="evenodd" d="M19.2441 16.696C20.5412 17.3171 21.2095 19.0492 21.2892 21.9954C21.2985 22.3684 21.5247 22.9437 22.1277 23.4368C22.7174 23.9199 24.1114 24.6586 26.8095 24.1864C30.7631 23.4927 31.9639 21.5336 32.0375 21.4068L35.0528 15.11C35.1878 14.8281 35.1085 14.5402 34.8637 14.4229L11.2301 3.10564C10.9867 2.98909 10.7105 3.10861 10.5755 3.39056L7.56023 9.68732C7.51312 9.81618 6.74615 12.0121 8.6722 15.5029C9.99372 17.9017 11.4438 18.5232 12.1913 18.6805C12.9536 18.8411 13.5422 18.6559 13.84 18.4301C16.1765 16.6445 17.9427 16.0764 19.2419 16.6967L19.2449 16.6982L19.2441 16.696ZM22.453 24.5903C22.0894 24.4162 21.8146 24.2281 21.6138 24.0645C20.9219 23.4978 20.4967 22.7323 20.4771 22.015C20.4089 19.441 19.8763 17.898 18.8938 17.4275L18.8924 17.4268C17.9107 16.9585 16.3761 17.5116 14.3331 19.0729C13.7621 19.5073 12.8991 19.6559 12.0238 19.4721C11.1419 19.287 9.44001 18.5742 7.96062 15.8918C5.78023 11.9378 6.76991 9.46728 6.81386 9.36409C6.8167 9.35815 6.81806 9.35151 6.82091 9.34557L9.84184 3.03703C10.1688 2.35436 10.9328 2.06167 11.5799 2.37154L35.2135 13.6888C35.8605 13.9987 36.11 14.7768 35.7831 15.4594L32.7622 21.768L32.7537 21.7858C32.7009 21.8845 31.3966 24.2045 26.9492 24.9847C24.7977 25.3629 23.3546 25.0239 22.4509 24.5912L22.453 24.5903Z" fill="white" fill-opacity="0.1"/>
<path fill-rule="evenodd" clip-rule="evenodd" d="M11.8841 5.95053L9.73784 10.4324C9.70017 10.5111 9.67852 10.5792 9.66524 10.664C9.48845 11.7342 10.1718 13.4808 10.676 14.3936C11.1939 15.3312 11.7855 16.0122 12.3419 16.3133C12.6598 16.4838 13.3275 16.061 14.0389 15.6154C15.5346 14.675 17.5829 13.3883 20.2004 14.6161L20.2464 14.6381C22.8568 15.8882 23.1431 18.3039 23.3552 20.0711C23.4541 20.9084 23.5522 21.6979 23.8777 21.8374C24.4603 22.0835 25.3617 22.1175 26.4176 21.9317C27.4449 21.7523 29.234 21.1896 29.957 20.381C30.0155 20.316 30.0542 20.2579 30.0919 20.1793L32.2381 15.6974L11.8841 5.95053ZM12.0071 17.054C11.9893 17.0454 11.9729 17.0376 11.9558 17.0276C11.0682 16.5496 10.3836 15.5449 9.96436 14.7859C9.4487 13.8512 8.63606 11.9023 8.86365 10.5317C8.89032 10.3693 8.93356 10.2295 9.00464 10.081L11.3264 5.23253C11.4231 5.0307 11.6652 4.94414 11.8685 5.0415L32.9524 15.1379C33.1543 15.2345 33.2401 15.4781 33.1435 15.68L30.8217 20.5285C30.7506 20.6769 30.6688 20.7982 30.559 20.9208C29.6339 21.9574 27.6061 22.5461 26.5545 22.7304C25.7004 22.8796 24.4869 22.9754 23.5581 22.5835C22.7968 22.2609 22.6794 21.2907 22.5469 20.1655C22.3477 18.4975 22.1011 16.4255 19.8927 15.368L19.8541 15.3495C17.6373 14.3098 15.881 15.4135 14.4674 16.3001C13.5332 16.8872 12.7242 17.3955 12.0059 17.0516L12.0071 17.054Z" fill="white" fill-opacity="0.1"/>
<path fill-rule="evenodd" clip-rule="evenodd" d="M7.12698 9.65073L6.17719 9.19591C5.45147 8.84839 5.14369 7.9749 5.49119 7.24922L7.2842 3.50494C7.63172 2.77922 8.50521 2.47144 9.22941 2.81824L10.1792 3.27306C10.381 3.36971 10.4669 3.61332 10.3702 3.81516C10.2736 4.01699 10.0315 4.10354 9.82814 4.00618L8.87834 3.55136C8.5563 3.39714 8.17002 3.53325 8.01579 3.85531L6.2235 7.59811C6.06928 7.92015 6.20539 8.30644 6.52745 8.46066L7.47725 8.91548C7.67908 9.01213 7.76492 9.25574 7.66827 9.45758C7.57162 9.65941 7.32949 9.74596 7.12618 9.6486L7.12698 9.65073Z" fill="white" fill-opacity="0.1"/>
<path fill-rule="evenodd" clip-rule="evenodd" d="M5.69436 7.76622L3.79477 6.85657C3.59294 6.75992 3.50638 6.51779 3.60374 6.31448L5.3733 2.61917C5.46995 2.41734 5.71208 2.33078 5.91539 2.42814L7.81498 3.33779C8.01681 3.43444 8.10266 3.67805 8.00601 3.87988C7.90936 4.08171 7.66723 4.16827 7.46391 4.07091L5.92939 3.33608L4.5109 6.29826L6.04543 7.03309C6.24726 7.12974 6.3331 7.37335 6.23645 7.57519C6.1398 7.77702 5.89767 7.86358 5.69436 7.76622Z" fill="white" fill-opacity="0.1"/>
<path fill-rule="evenodd" clip-rule="evenodd" d="M33.2865 22.1777L32.3368 21.7229C32.1349 21.6262 32.0484 21.3841 32.1457 21.1808C32.2424 20.9789 32.486 20.8931 32.6878 20.9897L33.6376 21.4446C33.9597 21.5988 34.3459 21.4627 34.5002 21.1406L36.2932 17.3963C36.4474 17.0743 36.3113 16.688 35.9892 16.5338L35.0394 16.079C34.8376 15.9823 34.751 15.7402 34.8484 15.5369C34.945 15.335 35.1887 15.2492 35.3905 15.3458L36.3403 15.8007C37.066 16.1482 37.3738 17.0217 37.0263 17.7473L35.234 21.4901C34.8865 22.2159 34.013 22.5236 33.2873 22.1761L33.2865 22.1777Z" fill="white" fill-opacity="0.1"/>
<path fill-rule="evenodd" clip-rule="evenodd" d="M36.6016 22.5666L34.702 21.6569C34.5002 21.5603 34.4136 21.3181 34.511 21.1148C34.6076 20.913 34.8498 20.8264 35.0531 20.9238L36.5876 21.6586L38.0061 18.6964L36.4716 17.9616C36.2697 17.865 36.1832 17.6228 36.2805 17.4195C36.3772 17.2177 36.6193 17.1311 36.8226 17.2285L38.7222 18.1381C38.9255 18.2355 39.0099 18.4784 38.9132 18.6802L37.1437 22.3755C37.047 22.5774 36.8049 22.6639 36.6016 22.5666Z" fill="white" fill-opacity="0.1"/>
</svg>
