<svg width="69" height="62" viewBox="0 0 69 62" fill="none" xmlns="http://www.w3.org/2000/svg">
<path d="M23.7883 27.1585C23.6231 27.2068 23.5647 27.3136 23.5063 27.4203C23.472 27.6096 23.5445 27.8573 23.6754 27.9983C23.8063 28.1392 23.8889 28.1151 24.054 28.0668C25.6228 27.6078 26.672 27.2112 27.4212 26.0956C27.6549 25.6687 27.8885 25.2418 28.0637 24.9216C28.6237 23.7718 29.2078 22.7046 30.9417 22.1973C32.8407 21.6416 33.9321 22.3083 35.1061 22.9508C35.4263 23.126 35.7706 23.3838 36.1733 23.5349C37.5125 24.1291 38.61 23.8976 40.1788 23.4386C40.5916 23.3178 40.4708 22.905 40.4467 22.8224C40.3983 22.6573 40.2433 22.4338 39.913 22.5304L39.8305 22.5546C38.6745 22.8928 37.4944 23.1484 36.1312 22.4716C35.811 22.2964 35.4908 22.1212 35.1706 21.9459C34.7437 21.7123 34.3994 21.4545 33.9967 21.3034C33.0019 20.967 31.9386 21.0092 30.7001 21.3716C30.6175 21.3957 30.6175 21.3957 30.535 21.4199C29.2965 21.7823 28.4023 22.4024 27.8283 23.1978C27.4879 23.5663 27.361 24.0516 27.1274 24.4785C27.0931 24.6678 26.9763 24.8812 26.8353 25.0121C26.1243 26.5647 24.9099 27.0096 23.6714 27.372C23.7883 27.1585 23.7883 27.1585 23.7883 27.1585ZM20.5256 10.1861C13.8376 12.1428 9.98255 19.1867 11.9393 25.8746L12.2292 26.8654L12.1708 26.9721C11.6069 27.4957 11.1497 28.0776 10.7992 28.7179C9.18394 31.1625 8.74263 34.2496 9.31015 38.0275L9.33431 38.1101L9.2759 38.2168C8.36153 39.3807 6.58507 42.4998 9.52073 47.0191C9.65161 47.16 11.8222 50.2896 16.2606 49.5289L16.3432 49.5047L16.4499 49.5631C22.2996 53.3194 30.0908 53.9082 33.1638 53.995C36.8631 54.078 39.3885 53.5184 40.5444 53.1802C41.6178 52.8661 44.3184 51.9864 47.025 50.2085C52.662 46.4976 57.0041 41.7314 59.0305 37.0153L59.0889 36.9086L59.1714 36.8845C63.32 35.1329 63.4613 31.3268 63.4956 31.1375C63.5183 25.3943 59.9279 23.8453 58.7679 23.5572L58.6612 23.4988L58.6371 23.4163C57.1029 20.0108 54.9846 17.6726 52.389 16.4601C51.6661 16.1338 50.8606 15.8316 50.0208 15.7188L49.9141 15.6603L49.6726 14.8347C47.7158 8.14672 40.672 4.29167 33.984 6.24842L20.5256 10.1861ZM40.0411 52.0725C39.1328 52.3383 36.6075 52.8979 32.9908 52.7908C29.9178 52.7039 22.0198 52.0567 16.442 48.3105L16.3352 48.2521C13.6289 46.3549 11.8651 44.0026 11.0196 41.1128L10.8504 40.5348C9.5802 35.8869 9.8041 32.0567 11.5946 29.292C13.2683 26.7407 15.8138 25.6373 17.1349 25.2508C17.4652 25.1542 17.7129 25.0817 17.7955 25.0576L18.2324 25.0193L18.2768 24.5582C18.2526 24.4756 19.4717 17.3067 28.9669 14.5286C38.3796 11.7747 43.2705 17.1559 43.3531 17.1318L43.639 17.4963L44.0277 17.293C44.0277 17.293 47.7876 15.7447 51.5914 17.4105C54.5898 18.7741 56.8188 21.797 58.2783 26.4792C58.3266 26.6443 58.3749 26.8094 58.4474 27.0571C59.2688 29.8644 59.0752 32.879 57.9008 35.9117C57.9008 35.9117 57.9008 35.9117 57.925 35.9942C56.0397 40.5794 51.8042 45.404 46.1431 49.0323C43.6257 50.8445 41.0319 51.7827 40.0411 52.0725ZM59.4696 35.4527L59.6308 34.7781C60.4406 32.0314 60.459 29.3369 59.7101 26.7773C59.6618 26.6122 59.5893 26.3645 59.541 26.1994C59.4927 26.0342 59.4444 25.8691 59.3719 25.6214L59.0477 24.8199L59.5814 25.1119C60.8037 25.9196 62.2675 27.5529 62.2188 31.0629C62.243 31.1455 62.1038 33.4271 60.0577 35.0117L59.4696 35.4527ZM14.8007 48.5218L14.1503 48.4432C11.5727 48.2114 10.3323 46.423 10.3082 46.3405C8.50612 43.5512 8.6936 41.4348 9.20523 40.1198L9.47312 39.5036L9.66638 40.1642C9.69054 40.2467 9.7147 40.3293 9.73885 40.4119C9.78717 40.577 9.81133 40.6596 9.85964 40.8247L10.0287 41.4027C10.7776 43.9623 12.2454 46.2219 14.4081 48.0989L14.8007 48.5218ZM13.216 25.9492L13.0952 25.5364C12.2256 22.564 12.5843 19.5011 14.0446 16.8329C15.5048 14.1648 17.9739 12.1875 20.8638 11.342L34.0745 7.47683C37.0469 6.60717 40.1099 6.96592 42.778 8.42616C45.4461 9.88641 47.4234 12.3555 48.2689 15.2453L48.3655 15.5756L48.0937 15.5655C46.38 15.5291 44.9522 15.8572 44.2332 16.1572L44.1506 16.1814L43.9613 16.1471C43.4378 15.5832 42.1914 14.693 40.4254 13.8652C38.0673 12.852 34.1265 11.9434 28.7596 13.5136C20.09 16.0502 17.8239 22.0913 17.3747 23.9258L17.3163 24.0325L17.2337 24.0567C16.4906 24.2741 15.0044 24.7089 13.4396 25.7942L13.216 25.9492ZM19.7789 26.6285C18.6229 26.9667 16.2184 27.9391 14.4964 30.3253C12.7985 32.794 12.4297 36.1288 13.5067 40.1162L13.6516 40.6116C16.2364 49.4463 29.0279 50.2752 32.9749 50.2856C36.1305 50.3484 38.2188 49.827 39.2096 49.5371C40.1179 49.2714 42.4056 48.5124 44.6894 47.1272C51.4923 42.8062 58.0761 35.5915 55.9261 28.243C55.8777 28.0779 55.8294 27.9127 55.7811 27.7476C54.539 23.8085 52.5134 21.1743 49.67 20.0342C46.8025 18.8116 43.9711 19.5504 42.8977 19.8644L42.8151 19.8886L42.791 19.806C41.2929 18.362 36.9474 15.1516 29.7641 17.2533C23.0761 19.2101 20.8605 23.8919 20.1675 26.4252L20.1917 26.5077L20.1091 26.5319C20.1091 26.5319 19.944 26.5802 19.7789 26.6285ZM39.0265 48.6047C38.2834 48.8221 36.1125 49.3677 33.0394 49.2808C29.3401 49.1979 17.034 48.4959 14.6183 40.2391L14.4975 39.8263C13.493 36.0866 13.7691 33.0479 15.3502 30.7926C16.7902 28.6682 18.9712 27.8508 20.1272 27.5126C20.2923 27.4643 20.4574 27.416 20.7051 27.3435L21.0354 27.2469L21.1281 26.9508C21.1382 26.679 22.1859 20.4565 30.1124 18.1374C38.0389 15.8183 42.2754 20.4947 42.4304 20.7182L42.668 20.9176L42.9983 20.821C43.1634 20.7727 46.2869 19.5003 49.3679 20.8397C51.9152 21.8871 53.7858 24.2978 54.9554 27.9892C55.0038 28.1543 55.0521 28.3195 55.0762 28.402C57.0813 35.2551 50.8379 42.1014 44.2585 46.2672C42.0573 47.6283 39.8521 48.3631 39.0265 48.6047ZM36.3793 39.2505C33.2417 40.1684 29.8507 38.3819 28.9085 35.1618C27.9905 32.0242 29.7771 28.6332 32.9972 27.691C36.1348 26.7731 39.5258 28.5596 40.4679 31.7797C41.3859 34.9173 39.5168 38.3325 36.3793 39.2505ZM33.2388 28.5167C30.5141 29.3139 28.937 32.1955 29.7342 34.9202C30.5314 37.6449 33.413 39.222 36.1377 38.4248C38.8624 37.6276 40.4395 34.746 39.6423 32.0213C38.8451 29.2966 35.9635 27.7195 33.2388 28.5167Z" fill="white" fill-opacity="0.1"/>
</svg>
