<svg width="36" height="43" viewBox="0 0 36 43" fill="none" xmlns="http://www.w3.org/2000/svg">
<path d="M3.86694 7.68843C3.68309 7.70733 3.51377 7.58263 3.47867 7.39997C3.39947 6.989 3.33713 6.57871 3.27716 6.18209C3.21783 5.79164 3.1567 5.38842 3.08033 4.99109C3.06172 4.89411 3.08402 4.7934 3.14205 4.7135C3.20009 4.6336 3.28828 4.58085 3.38638 4.56837C4.10186 4.47659 4.81181 4.37769 5.49689 4.27511L5.60329 4.98332C5.03311 5.06882 4.44533 5.15131 3.85189 5.23007C3.90086 5.51501 3.94389 5.79815 3.98575 6.07469C4.02854 6.35546 4.072 6.64287 4.12169 6.93013C4.62942 6.85826 5.14209 6.78301 5.64871 6.70501L6.77105 6.52676C7.56664 6.39698 8.37217 6.25657 9.16843 6.10992L9.14469 5.89296C9.09091 5.39777 9.03602 4.89645 8.98424 4.42074C8.25206 4.55553 7.5162 4.68253 6.79223 4.79919L6.67823 4.09175C7.5217 3.95609 8.38096 3.80584 9.23153 3.64592C9.32952 3.62769 9.4308 3.65089 9.51131 3.7103C9.59136 3.76976 9.64336 3.85995 9.65404 3.95919C9.71809 4.54502 9.78824 5.18543 9.85641 5.81597L9.91603 6.36337C9.93612 6.54949 9.80962 6.71996 9.62591 6.7542C8.71824 6.92383 7.79587 7.08585 6.88462 7.23472L5.75896 7.41331C5.13326 7.50979 4.50137 7.6021 3.87939 7.68811C3.87502 7.6876 3.87074 7.68804 3.86694 7.68843Z" fill="white" fill-opacity="0.1"/>
<path d="M22.3816 40.5961C18.8382 40.9604 15.2344 41.1863 11.6055 41.2703C11.4863 41.2729 11.3734 41.2163 11.3048 41.1187C7.8917 36.2915 4.98697 31.5435 2.42348 26.6029C2.36477 26.4894 2.37047 26.3535 2.43908 26.2456C3.85329 24.0215 4.49249 20.9597 4.33946 17.1449C4.23431 14.5292 3.96391 11.9871 3.67722 9.29602C3.6102 8.66729 3.54097 8.01719 3.47422 7.36778L4.18681 7.29454C4.25341 7.94252 4.32258 8.59215 4.38951 9.21993C4.67742 11.9229 4.949 14.4764 5.05511 17.1155C5.21042 20.9805 4.57058 24.1201 3.1531 26.4526C5.65104 31.2457 8.4748 35.86 11.779 40.5482C17.6681 40.4032 23.4875 39.8838 29.0873 39.0034C27.508 33.2642 25.823 27.4359 24.1923 21.7946C22.5244 16.0251 20.7993 10.0594 19.1884 4.19091L19.879 4.00135C21.4889 9.86467 23.2127 15.8281 24.8804 21.5957C26.5483 27.3652 28.2734 33.3314 29.8842 39.1995C29.9111 39.2975 29.895 39.4024 29.84 39.4882C29.7849 39.5736 29.6958 39.6317 29.5957 39.6482C27.2269 40.0295 24.8182 40.3457 22.3816 40.5961Z" fill="white" fill-opacity="0.1"/>
<path d="M29.845 39.274L29.1334 39.1936L29.1464 39.077C30.1641 30.067 31.216 20.7534 32.2449 11.5531L20.303 7.62025C20.1226 7.56102 20.02 7.37089 20.0688 7.18729C20.1181 7.00363 20.3019 6.89065 20.4878 6.92915C23.6268 7.58058 27.5113 8.95615 32.7614 10.9643C32.9138 11.0225 33.0074 11.1766 32.9895 11.3388C31.9503 20.6352 30.8865 30.0513 29.858 39.1575L29.845 39.274Z" fill="white" fill-opacity="0.1"/>
<path d="M25.6183 24.5232L24.9884 24.1818C27.5455 19.462 29.5703 15.7613 32.3486 11.1056L32.9638 11.4725C30.193 16.1169 28.1714 19.811 25.6183 24.5232Z" fill="white" fill-opacity="0.1"/>
<path d="M7.60058 12.694L7.45738 11.992C10.7936 11.3116 14.0936 10.3396 17.2661 9.10333L17.5262 9.77078C14.3164 11.022 10.9768 12.0057 7.60058 12.694Z" fill="white" fill-opacity="0.1"/>
<path d="M13.5606 3.15265L12.8501 3.24383L13.1575 5.63925L13.868 5.54807L13.5606 3.15265Z" fill="white" fill-opacity="0.1"/>
<path d="M9.65432 3.96059L8.94174 4.03383L8.93506 3.97355L9.64764 3.9003L9.65432 3.96059Z" fill="white" fill-opacity="0.1"/>
<path d="M7.24972 7.5803L6.53714 7.65354C6.51175 7.40651 6.48934 7.15582 6.47007 6.90768C6.41756 6.23329 6.38697 5.548 6.3791 4.86423C6.13058 4.90321 5.87395 4.94255 5.60253 4.98293L5.49709 4.27462C5.91793 4.21216 6.30448 4.15226 6.67795 4.09131C6.78135 4.07444 6.88764 4.10432 6.96761 4.17244C7.04759 4.24055 7.09339 4.3405 7.09315 4.44566C7.09118 5.24855 7.1216 6.05819 7.18399 6.85206C7.20314 7.09445 7.22496 7.33945 7.24972 7.5803Z" fill="white" fill-opacity="0.1"/>
<path d="M6.37694 4.33225L6.37646 4.44352L7.09279 4.44658L7.09326 4.33531L6.37694 4.33225Z" fill="white" fill-opacity="0.1"/>
<path d="M10.0476 7.46214C9.86992 7.48041 9.69031 7.4331 9.54462 7.32805C9.37663 7.20706 9.26763 7.01999 9.24506 6.81444L9.14454 5.89246C9.07589 5.26198 9.00627 4.62199 8.94174 4.03621C8.92118 3.85014 9.04768 3.67967 9.23134 3.64495C12.4631 3.03673 15.6304 2.26855 18.6443 1.36203C18.8133 1.31105 18.9949 1.39129 19.0708 1.55103C19.4454 2.33729 19.6362 3.07236 19.8211 3.7826C19.8408 3.85739 19.86 3.93222 19.8796 4.00654C19.9294 4.19633 19.8173 4.39076 19.6282 4.44284C18.9032 4.64266 18.1654 4.839 17.4347 5.02548L16.655 5.22132L16.7529 5.70237L16.0509 5.84558L15.9593 5.39364C15.2694 5.56105 14.5825 5.72142 13.9087 5.8723L13.9135 5.90973C13.9594 6.26747 13.7421 6.60137 13.3974 6.70401C12.6223 6.9349 11.862 7.09034 11.057 7.2547C10.7542 7.31655 10.441 7.38042 10.1278 7.44862C10.1016 7.45468 10.0747 7.45936 10.0476 7.46214ZM9.6901 4.28766C9.74406 4.77996 9.80048 5.3008 9.85673 5.81542L9.95721 6.73692C9.95745 6.73929 9.95784 6.74309 9.96303 6.74688C9.96875 6.7511 9.97392 6.75008 9.97625 6.74936C10.2937 6.68025 10.6092 6.61566 10.9143 6.55309C11.7033 6.39182 12.4485 6.23937 13.1934 6.01735C13.1999 6.01524 13.2044 6.00805 13.2037 6.00093L13.1574 5.63939C13.1337 5.45555 13.2544 5.28425 13.4355 5.24402C14.2143 5.0718 15.0142 4.88636 15.8175 4.69146L15.4723 2.99099C13.5819 3.47814 11.6481 3.91214 9.6901 4.28766ZM16.1656 2.80931L16.5127 4.51919L17.2592 4.33157C17.8701 4.17564 18.487 4.01237 19.0974 3.84594C18.9531 3.29188 18.799 2.72298 18.5498 2.13795C17.7648 2.37129 16.9693 2.59516 16.1656 2.80931Z" fill="white" fill-opacity="0.1"/>
</svg>
