<svg width="47" height="58" viewBox="0 0 47 58" fill="none" xmlns="http://www.w3.org/2000/svg">
<path d="M28.2139 26.1621L27.0059 17.0206C26.9924 16.9321 26.9451 16.8523 26.8739 16.7979C26.8026 16.7434 26.713 16.7186 26.6237 16.7287L25.2729 16.9072C25.1841 16.9207 25.1039 16.9679 25.0493 17.039C24.9946 17.1101 24.9696 17.1994 24.9796 17.2884L26.1877 26.4299C26.1995 26.5191 26.2464 26.6 26.318 26.6548C26.3897 26.7095 26.4803 26.7337 26.5699 26.7218L27.9207 26.5433C28.0103 26.5315 28.0915 26.4847 28.1465 26.4132C28.2015 26.3417 28.2257 26.2514 28.2139 26.1621ZM27.4949 25.9215L26.8195 26.0108L25.6995 17.5357L26.375 17.4465L27.4949 25.9215ZM41.9189 22.536C41.8199 22.5148 39.6291 22.0578 38.1984 18.7196C36.7205 15.2848 37.6912 8.22525 37.7017 8.14852C37.7134 8.06613 37.6936 7.9824 37.6464 7.91384C37.5992 7.84528 37.5279 7.79687 37.4466 7.77814L26.5586 5.10748C26.5003 4.9782 26.442 4.84893 26.3761 4.71381C24.9538 2.01144 19.8586 2.56147 19.5943 2.58955C19.33 2.61763 14.418 3.15029 13.5894 6.39668C13.5541 6.54519 13.5187 6.69369 13.4969 6.84041L3.68993 12.2458C3.61628 12.285 3.56001 12.3503 3.53222 12.4288C3.50443 12.5073 3.50713 12.5932 3.53979 12.6698C3.54958 12.7438 6.3401 19.2995 5.80608 23.007C5.2916 26.6023 3.29475 27.6127 3.2114 27.658C3.14502 27.6864 3.08994 27.7359 3.05473 27.7988C3.01953 27.8617 3.0062 27.9344 3.01681 28.0056L6.80722 56.6888C6.81902 56.778 6.86591 56.8589 6.93758 56.9137C7.00926 56.9685 7.09984 56.9926 7.18941 56.9807L45.6884 51.8932C45.778 51.8813 45.8592 51.8345 45.9142 51.763C45.9692 51.6916 45.9934 51.6012 45.9816 51.512L42.1903 22.822C42.1796 22.7525 42.1479 22.6879 42.0994 22.6368C42.0509 22.5857 41.9879 22.5505 41.9189 22.536ZM36.9941 8.35846C36.8185 9.78574 36.1845 15.7529 37.574 18.987C38.8931 22.0523 40.8423 22.918 41.5578 23.1317L44.7735 47.4663L26.1859 49.9226L21.3209 13.1076C23.4214 12.0493 25.9807 10.3549 26.7213 8.10645C26.9692 7.3638 26.9973 6.56591 26.8024 5.80812L36.9941 8.35846ZM14.1466 7.07646C15.3683 8.83277 18.9106 8.96054 20.0775 8.95017L20.5498 12.5246C17.6066 11.8862 15.5087 10.7799 14.6376 9.38821C14.2036 8.70024 14.0317 7.87962 14.1533 7.07557L14.1466 7.07646ZM25.98 5.51271C26.2941 6.2779 26.3288 7.12898 26.0778 7.91751C25.43 9.87978 23.1663 11.4186 21.2235 12.4219L20.752 8.85418C21.8031 8.59199 25.2388 7.54895 25.9876 5.51855L25.98 5.51271ZM19.5369 3.24779L19.6585 3.23172C19.7058 3.22548 23.8644 2.76496 25.4368 4.52287C25.6696 7.01258 20.355 8.24228 20.3559 8.24901C20.3568 8.25574 14.8547 8.48284 14.4387 6.0105C15.4649 3.89549 18.8624 3.34378 19.5446 3.25363L19.5369 3.24779ZM6.47761 23.0963C6.97842 19.6056 4.81706 14.0146 4.27673 12.682L13.4277 7.61666C13.433 8.36641 13.6489 9.09951 14.0509 9.73286C15.3343 11.7481 18.2967 12.7402 20.6491 13.2238L25.5105 50.0118L6.93645 52.4663L3.7207 28.1317C4.32232 27.744 6.00006 26.3991 6.47761 23.0963ZM7.01457 53.1615L25.5886 50.707L26.0032 53.8439L7.44261 56.2966L7.01457 53.1615ZM26.6786 53.7546L26.2605 50.5908L44.8346 48.1363L45.2491 51.2732L26.6786 53.7546ZM10.0492 50.3838L20.9708 48.9406C21.0603 48.9287 21.1416 48.8819 21.1966 48.8104C21.2515 48.7389 21.2758 48.6486 21.264 48.5593L19.8256 37.6744C19.8198 37.6305 19.8053 37.5882 19.7829 37.55C19.7605 37.5118 19.7307 37.4784 19.6951 37.4519C19.6596 37.4253 19.6192 37.4061 19.5761 37.3953C19.533 37.3846 19.4882 37.3825 19.4443 37.3892L8.52274 38.8324C8.43497 38.844 8.35538 38.8899 8.30149 38.96C8.24759 39.03 8.22381 39.1185 8.23537 39.206L9.67379 50.091C9.68542 50.1791 9.73125 50.2591 9.80144 50.3139C9.87164 50.3686 9.9606 50.3937 10.0492 50.3838ZM8.94852 39.4542L19.2014 38.0993L20.5509 48.3111L10.298 49.666L8.94852 39.4542ZM28.2008 36.5676L29.6392 47.4526C29.6527 47.5411 29.7 47.6209 29.7713 47.6753C29.8425 47.7298 29.9322 47.7546 30.0214 47.7445L40.943 46.3013C41.0311 46.2878 41.1105 46.2405 41.1641 46.1694C41.2176 46.0983 41.2411 46.0091 41.2295 45.921L39.791 35.036C39.7795 34.9485 39.7335 34.8693 39.6633 34.8156C39.593 34.7619 39.5043 34.7383 39.4165 34.7499L28.4949 36.1932C28.4065 36.2048 28.3262 36.2506 28.2712 36.3206C28.2162 36.3906 28.1909 36.4793 28.2008 36.5676ZM28.9207 36.815L39.1668 35.461L40.5163 45.6727L30.2702 47.0267L28.9207 36.815Z" fill="white" fill-opacity="0.1"/>
</svg>
